# Blender 3.1.0
# www.blender.org
mtllib Bush 2.mtl
o Sphere
v 0.301198 0.635943 -0.685266
v 0.533463 0.261406 -1.136436
v 0.537161 -0.341728 -1.160511
v 0.341671 -0.526631 -0.706596
v 0.588274 0.649521 -0.278868
v 0.830249 0.237238 -0.491235
v 0.886699 -0.340387 -0.564484
v 0.508349 -0.483257 -0.354381
v 0.549480 0.620760 0.059638
v 0.983090 0.259687 0.229275
v 0.973460 -0.342166 0.222159
v 0.656789 -0.554035 0.061343
v 0.463189 0.635778 0.519349
v 0.715482 0.235188 0.911065
v 0.725814 -0.336740 0.856834
v 0.441006 -0.509543 0.496100
v 0.161137 0.657301 0.729029
v 0.249218 0.218423 1.106512
v 0.223686 -0.231230 1.159293
v 0.179971 -0.525383 0.775188
v 0.024402 0.727855 0.133519
v -0.174885 0.657599 0.781386
v -0.284358 0.223598 1.284201
v -0.338750 -0.364884 1.340405
v -0.173672 -0.512485 0.762640
v -0.445021 0.555390 0.494982
v -0.714999 0.198203 0.859538
v -0.750641 -0.351020 0.876396
v -0.422165 -0.495439 0.499126
v -0.560122 0.644089 0.083447
v -0.980235 0.239028 0.157650
v -1.034042 -0.363158 0.122548
v -0.571514 0.675902 -0.366546
v -0.847184 -0.146272 -0.527029
v -0.826738 -0.342591 -0.504407
v -0.546974 -0.511596 -0.423245
v -0.338544 0.523655 -0.601877
v -0.516342 0.259539 -1.000764
v -0.560970 -0.364959 -1.157022
v -0.312352 -0.528343 -0.759843
v -0.019857 0.607632 -0.802266
v 0.026005 0.233060 -1.276866
v -0.002246 -0.332467 -1.275281
v 0.027145 -0.501434 -0.748144
v 0.436145 0.451695 -0.917042
v 0.542118 0.007124 -1.062942
v 0.446276 -0.460626 -0.996915
v 0.674788 0.439284 -0.410096
v 0.937278 -0.229956 -0.578171
v 0.763889 -0.442738 -0.434142
v 0.462923 -0.517107 -0.499819
v 0.700056 -0.325671 -0.847880
v 0.720978 0.240095 -0.824089
v 0.445339 0.652071 -0.545197
v 0.885766 0.510998 0.100857
v 0.952033 -0.001246 0.121730
v 0.862784 -0.441411 0.210295
v 0.589110 -0.519309 -0.135211
v 0.925963 -0.352063 -0.186210
v 1.000137 0.300427 -0.233694
v 0.566233 0.603623 -0.116356
v 0.603872 0.416607 0.626172
v 0.822649 -0.252885 1.007280
v 0.606108 -0.414857 0.673108
v 0.561806 -0.524737 0.303797
v 0.893955 -0.354575 0.565809
v 0.901363 0.274785 0.573125
v 0.502436 0.652661 0.322844
v 0.231851 0.464885 1.142729
v 0.268941 -0.007248 1.179367
v 0.257826 -0.454237 1.060888
v 0.299990 -0.516758 0.706951
v 0.448721 -0.347395 1.008389
v 0.514975 0.256798 1.082359
v 0.305578 0.631346 0.628078
v -0.113503 0.826842 0.421515
v -0.260847 0.509997 1.096137
v -0.286269 -0.018280 1.285368
v -0.258498 -0.444552 1.166288
v -0.020796 -0.527803 0.786527
v -0.038341 -0.353153 1.378755
v 0.009813 0.221724 1.247050
v -0.023054 0.623752 0.800265
v -0.640833 0.417030 0.715775
v -0.711958 0.017359 0.830133
v -0.517758 -0.423820 0.735376
v -0.319209 -0.529538 0.638693
v -0.547344 -0.345796 1.173481
v -0.524537 0.283548 1.117334
v -0.321407 0.605189 0.637155
v -0.799915 0.467154 0.180330
v -0.987767 -0.007660 0.122539
v -0.743630 -0.429558 0.122757
v -0.524708 -0.529889 0.332296
v -0.816908 -0.342485 0.528976
v -0.854449 0.273293 0.504915
v -0.498826 0.588870 0.308088
v -0.713972 0.444174 -0.456219
v -0.783461 0.018997 -0.535548
v -0.709813 -0.435528 -0.390008
v -1.007813 -0.338950 -0.215733
v -1.026346 -0.117270 -0.185721
v -0.568216 0.611307 -0.089930
v -0.477766 0.491812 -0.943383
v -0.575418 -0.231564 -1.166100
v -0.480856 -0.426526 -0.951079
v -0.437709 -0.505461 -0.532527
v -0.678203 -0.345329 -0.790020
v -0.700951 0.260725 -0.832610
v -0.443105 0.640712 -0.503423
v 0.029912 0.478235 -1.118101
v 0.016633 -0.254175 -1.375259
v -0.059202 -0.440584 -1.189402
v -0.158912 -0.503953 -0.741846
v -0.254260 -0.352945 -1.263600
v -0.252208 0.215306 -1.287305
v -0.162432 0.609602 -0.702853
v -0.023207 0.740089 -0.476423
v 0.187328 0.817393 -0.430666
v 0.172476 -0.537203 -0.794422
v 0.269632 -0.346639 -1.193379
v 0.263718 0.239474 -1.217125
v 0.164466 0.631749 -0.729728
v 0.287203 0.788408 -0.156313
v 0.264749 0.690013 0.042508
v 0.225506 0.768910 0.275341
v 0.113451 0.767082 0.425923
v -0.273612 0.744298 0.311026
v -0.289976 0.782014 -0.012774
v -0.239906 0.664846 -0.151398
v -0.171088 0.643519 -0.333265
v -0.288895 0.515336 -1.146805
v -0.298697 -0.428967 -1.108677
v -0.268298 -0.232052 -1.378766
v -0.602620 0.478853 -0.721953
v -0.590959 -0.424689 -0.687512
v -0.723079 -0.229870 -0.859864
v -0.750265 0.448001 -0.104003
v -0.718990 -0.439375 -0.134226
v -0.891661 0.032221 -0.225154
v -0.735487 0.457999 0.460054
v -0.720356 -0.438228 0.451940
v -0.992393 -0.230359 0.523768
v -0.436294 0.480897 0.923333
v -0.387144 -0.423534 0.974207
v -0.542740 0.012862 1.088685
v -0.003845 0.519098 1.153602
v -0.022454 -0.450745 1.083458
v -0.027215 -0.019856 1.292231
v 0.495488 0.480023 0.966059
v 0.411909 -0.433022 0.787545
v 0.614830 -0.244854 1.250257
v 0.721397 0.446937 0.332243
v 0.716114 -0.431070 0.429560
v 0.835788 -0.012956 0.556301
v 0.783859 0.497148 -0.154795
v 0.806613 -0.437618 -0.087590
v 1.062086 -0.241309 -0.229745
v 0.563078 0.430523 -0.682424
v 0.617896 -0.470973 -0.812173
v 0.694538 0.009979 -0.837773
v 0.225423 0.515444 -1.092330
v 0.175350 -0.457956 -1.032656
v 0.295226 -0.238562 -1.356295
vn 0.4071 0.0687 -0.9108
vn 0.3216 0.3701 -0.8715
vn 0.6508 0.3569 -0.6702
vn 0.7452 0.0077 -0.6668
vn 0.0601 -0.9259 -0.3730
vn 0.1261 -0.8184 -0.5606
vn 0.0734 -0.8326 -0.5491
vn 0.0998 -0.9306 -0.3522
vn 0.2090 0.7713 -0.6011
vn 0.0728 0.9083 -0.4119
vn 0.3463 0.8610 -0.3726
vn 0.5084 0.7483 -0.4262
vn 0.8520 0.0353 -0.5224
vn 0.8671 0.0408 -0.4964
vn 0.8995 0.0637 -0.4323
vn 0.8613 -0.0087 -0.5080
vn 0.6141 -0.7066 -0.3515
vn 0.6152 -0.7079 -0.3469
vn 0.6107 -0.7599 -0.2228
vn 0.4388 -0.8927 -0.1024
vn 0.6527 0.6823 -0.3292
vn 0.5576 0.7708 -0.3081
vn 0.5906 0.7955 -0.1352
vn 0.6659 0.6678 -0.3325
vn 0.9822 -0.1154 0.1480
vn 0.9886 0.0187 0.1497
vn 0.9700 -0.1278 0.2069
vn 0.9809 -0.0464 0.1891
vn 0.4940 -0.8613 -0.1187
vn 0.5811 -0.8104 -0.0752
vn 0.5297 -0.8467 0.0505
vn 0.4756 -0.8767 0.0721
vn 0.6147 0.7599 -0.2114
vn 0.4738 0.8798 0.0382
vn 0.3827 0.9201 0.0832
vn 0.6417 0.7634 0.0737
vn 0.9691 -0.0174 0.2461
vn 0.9630 -0.0776 0.2581
vn 0.7916 0.4334 0.4306
vn 0.8915 0.1190 0.4371
vn 0.2186 0.9704 0.1023
vn 0.4572 0.8734 0.1679
vn 0.3454 -0.9131 0.2166
vn 0.3441 -0.9191 0.1917
vn 0.2404 -0.9338 0.2650
vn 0.2806 -0.9277 0.2463
vn 0.5703 0.7661 0.2965
vn 0.5283 0.8232 0.2080
vn 0.5849 0.7560 0.2939
vn 0.0314 0.3187 0.9473
vn 0.1877 0.2533 0.9490
vn 0.2708 0.2138 0.9386
vn 0.2810 0.2217 0.9338
vn 0.3317 -0.8927 0.3051
vn 0.3633 -0.8237 0.4353
vn 0.4505 -0.6589 0.6025
vn 0.3566 -0.8052 0.4738
vn 0.5370 0.7773 0.3278
vn 0.3847 0.8923 0.2361
vn 0.2055 0.9153 0.3465
vn 0.1764 0.9237 0.3401
vn 0.2270 0.1391 0.9639
vn 0.2017 0.2232 0.9537
vn -0.1303 0.3751 0.9178
vn -0.3133 0.1330 0.9403
vn 0.1218 -0.9230 0.3649
vn 0.2019 -0.8556 0.4766
vn -0.1443 -0.9496 0.2784
vn -0.1243 -0.9583 0.2573
vn 0.0591 0.9348 0.3502
vn 0.0842 0.9237 0.3737
vn -0.2215 0.9179 0.3292
vn -0.2619 0.7541 0.6023
vn -0.7288 0.0684 0.6813
vn -0.7011 -0.0322 0.7123
vn -0.8180 0.2824 0.5010
vn -0.8421 0.0508 0.5370
vn -0.2660 -0.9483 0.1731
vn -0.2773 -0.9448 0.1746
vn -0.2915 -0.9433 0.1590
vn -0.3222 -0.9299 0.1771
vn -0.5423 0.7568 0.3650
vn -0.5175 0.8257 0.2246
vn -0.4538 0.8601 0.2329
vn -0.6159 0.7179 0.3246
vn -0.9371 -0.0793 0.3400
vn -0.8562 0.3924 0.3360
vn -0.9005 0.4345 -0.0164
vn -0.9794 0.0257 0.2001
vn -0.3396 -0.9290 0.1468
vn -0.3613 -0.9203 0.1502
vn -0.3100 -0.9503 0.0294
vn -0.2329 -0.9723 0.0222
vn -0.5964 0.7516 0.2817
vn -0.4453 0.8636 0.2363
vn -0.5322 0.8455 0.0426
vn -0.7039 0.7100 0.0201
vn 0.8062 -0.4496 0.3846
vn -0.4958 0.8598 0.1223
vn -0.6572 0.7488 -0.0854
vn -0.2073 -0.9772 -0.0455
vn -0.3219 -0.9427 -0.0879
vn -0.4321 -0.8822 -0.1873
vn -0.4077 -0.9024 -0.1398
vn -0.7946 0.5780 -0.1859
vn -0.7031 0.6929 -0.1598
vn -0.8303 0.5120 -0.2204
vn -0.9144 -0.0844 -0.3958
vn -0.8711 0.2656 -0.4130
vn -0.7248 0.2753 -0.6316
vn -0.8120 0.0365 -0.5826
vn -0.4229 -0.8870 -0.1856
vn -0.4737 -0.8632 -0.1748
vn -0.2687 -0.9224 -0.2775
vn -0.2956 -0.9306 -0.2161
vn -0.0155 0.9475 -0.3194
vn 0.1812 0.8705 -0.4576
vn -0.1347 0.9508 -0.2789
vn -0.2290 0.9644 -0.1325
vn 0.0258 0.1983 -0.9798
vn 0.0494 0.3419 -0.9384
vn 0.0910 0.3532 -0.9311
vn 0.0806 0.2192 -0.9723
vn 0.0061 0.9997 0.0228
vn 0.0877 0.9790 -0.1840
vn 0.0501 0.9948 -0.0884
vn -0.1062 -0.9363 -0.3347
vn -0.1835 -0.7199 -0.6694
vn 0.0673 -0.7853 -0.6154
vn -0.0009 -0.8892 -0.4575
vn -0.1306 0.9753 -0.1782
vn -0.3203 0.9338 -0.1595
vn -0.0862 0.9411 -0.3270
vn -0.0127 0.9479 -0.3183
vn 0.0729 0.4833 -0.8724
vn 0.0995 0.4820 -0.8705
vn -0.7144 0.3403 -0.6114
vn -0.7059 0.2490 -0.6631
vn -0.6563 0.2513 -0.7114
vn -0.0418 -0.9938 -0.1031
vn -0.0495 -0.9947 -0.0903
vn -0.1475 -0.9780 -0.1478
vn -0.4472 0.8931 -0.0488
vn -0.3324 0.9240 -0.1892
vn -0.2889 0.9505 0.1148
vn -0.1590 0.9725 0.1702
vn 0.2688 0.9538 0.1343
vn -0.2040 -0.6156 -0.7612
vn 0.0506 -0.7829 -0.6200
vn -0.4085 -0.4372 -0.8012
vn -0.6255 0.2521 -0.7384
vn -0.8557 0.3705 -0.3612
vn -0.9262 0.2572 -0.2757
vn -0.5891 0.7275 -0.3518
vn -0.2050 -0.9736 -0.1007
vn -0.2201 -0.9700 -0.1033
vn 0.3366 0.7638 -0.5507
vn -0.9333 -0.1684 -0.3172
vn -0.8855 -0.3184 -0.3383
vn -0.9252 0.0610 -0.3745
vn -0.9300 0.0258 -0.3667
vn -0.8661 0.4014 -0.2979
vn -0.2402 0.6969 -0.6758
vn -0.9392 0.1954 -0.2824
vn -0.9316 0.1911 -0.3092
vn -0.9650 0.2137 -0.1521
vn -0.4309 -0.8319 0.3497
vn -0.1779 -0.9814 0.0723
vn -0.1702 -0.9778 0.1224
vn -0.5269 0.8140 0.2445
vn 0.1193 0.9869 0.1089
vn 0.1371 0.9856 -0.0986
vn 0.1414 0.9765 -0.1626
vn -0.8957 -0.2174 0.3878
vn -0.9479 -0.2599 0.1844
vn -0.8416 -0.0095 0.5400
vn -0.5772 0.6124 0.5402
vn -0.2016 -0.9752 0.0917
vn -0.0928 -0.9895 0.1110
vn -0.5706 0.7800 0.2568
vn -0.0589 0.9533 -0.2962
vn 0.0153 0.9637 -0.2665
vn -0.1878 0.8977 -0.3985
vn -0.7014 0.1811 0.6893
vn -0.3593 0.2145 0.9082
vn -0.5929 -0.0199 0.8050
vn 0.1222 0.3015 0.9456
vn 0.3225 0.1466 0.9351
vn -0.0171 -0.9930 0.1172
vn 0.0946 -0.9871 0.1290
vn 0.2024 0.9716 0.1225
vn 0.1279 0.9044 0.4071
vn -0.0825 0.2105 0.9741
vn 0.5015 0.0522 0.8636
vn 0.3323 0.1838 0.9251
vn 0.7247 0.4529 0.5194
vn 0.1873 -0.9730 0.1348
vn 0.1550 -0.9794 0.1296
vn 0.2074 0.9765 -0.0589
vn -0.2100 -0.5255 0.8245
vn 0.2358 -0.9295 0.2836
vn 0.6865 0.3181 0.6539
vn 0.5163 0.7949 0.3187
vn 0.7181 0.6698 0.1888
vn 0.1619 -0.9781 0.1308
vn 0.2549 -0.9668 -0.0202
vn 0.9750 0.0044 0.2220
vn 0.9697 -0.1516 0.1915
vn 0.9781 0.0072 0.2078
vn 0.6968 0.6557 -0.2908
vn 0.6227 0.6972 -0.3553
vn 0.1531 -0.9856 -0.0715
vn 0.1133 -0.9933 -0.0216
vn 0.9690 -0.1997 0.1455
vn 0.6521 0.7027 -0.2846
vn 0.0989 -0.9950 -0.0097
vn 0.1783 -0.9813 -0.0721
vn 0.0625 -0.9929 -0.1014
vn 0.6016 -0.6933 -0.3967
vn 0.2319 0.9138 -0.3333
vn 0.8167 -0.0000 -0.5770
vn 0.8451 -0.0524 -0.5320
vn 0.7226 -0.0521 -0.6893
vn -0.0072 -0.9901 -0.1399
vn 0.5814 -0.1532 -0.7991
vn 0.1053 -0.8196 -0.5632
vn 0.9109 -0.0216 -0.4120
vt 0.636364 0.800000
vt 0.636364 0.600000
vt 0.636364 0.400000
vt 0.636364 0.200000
vt 0.545455 0.800000
vt 0.545455 0.600000
vt 0.545455 0.400000
vt 0.545455 0.200000
vt 0.454545 0.800000
vt 0.454545 0.600000
vt 0.454545 0.400000
vt 0.454545 0.200000
vt 0.363636 0.800000
vt 0.363636 0.600000
vt 0.363636 0.400000
vt 0.363636 0.200000
vt 0.272727 0.800000
vt 0.272727 0.600000
vt 0.272727 0.400000
vt 0.272727 0.200000
vt 0.500000 1.000000
vt 0.045455 1.000000
vt 0.136364 1.000000
vt 0.863636 1.000000
vt 0.409091 1.000000
vt 0.227273 1.000000
vt 0.681818 1.000000
vt 0.181818 0.800000
vt 0.181818 0.600000
vt 0.181818 0.400000
vt 0.181818 0.200000
vt 0.090909 0.800000
vt 0.090909 0.600000
vt 0.090909 0.400000
vt 0.090909 0.200000
vt 1.000000 0.800000
vt 0.000000 0.800000
vt 1.000000 0.600000
vt 0.000000 0.600000
vt 1.000000 0.400000
vt 0.000000 0.400000
vt 0.909091 0.800000
vt 0.909091 0.600000
vt 0.909091 0.400000
vt 0.909091 0.200000
vt 0.818182 0.800000
vt 0.818182 0.600000
vt 0.818182 0.400000
vt 0.818182 0.200000
vt 0.727273 0.800000
vt 0.727273 0.600000
vt 0.727273 0.400000
vt 0.727273 0.200000
vt 0.636364 0.700000
vt 0.636364 0.500000
vt 0.636364 0.300000
vt 0.545455 0.700000
vt 0.545455 0.500000
vt 0.545455 0.300000
vt 0.590909 0.200000
vt 0.590909 0.400000
vt 0.590909 0.600000
vt 0.590909 0.800000
vt 0.454545 0.700000
vt 0.454545 0.500000
vt 0.454545 0.300000
vt 0.500000 0.200000
vt 0.500000 0.400000
vt 0.500000 0.600000
vt 0.500000 0.800000
vt 0.363636 0.700000
vt 0.363636 0.500000
vt 0.363636 0.300000
vt 0.409091 0.200000
vt 0.409091 0.400000
vt 0.409091 0.600000
vt 0.409091 0.800000
vt 0.272727 0.700000
vt 0.272727 0.500000
vt 0.272727 0.300000
vt 0.318182 0.200000
vt 0.318182 0.400000
vt 0.318182 0.600000
vt 0.318182 0.800000
vt 0.159091 0.900000
vt 0.204545 0.900000
vt 0.181818 0.700000
vt 0.181818 0.500000
vt 0.181818 0.300000
vt 0.227273 0.200000
vt 0.227273 0.400000
vt 0.227273 0.600000
vt 0.227273 0.800000
vt 0.090909 0.700000
vt 0.090909 0.500000
vt 0.090909 0.300000
vt 0.136364 0.200000
vt 0.136364 0.400000
vt 0.136364 0.600000
vt 0.136364 0.800000
vt 1.000000 0.700000
vt 0.000000 0.700000
vt 1.000000 0.500000
vt 0.000000 0.500000
vt 0.000000 0.300000
vt 1.000000 0.300000
vt 0.045455 0.200000
vt 0.045455 0.400000
vt 0.045455 0.600000
vt 0.045455 0.800000
vt 0.909091 0.700000
vt 0.909091 0.500000
vt 0.909091 0.300000
vt 0.954545 0.400000
vt 0.954545 0.600000
vt 0.954545 0.800000
vt 0.818182 0.700000
vt 0.818182 0.500000
vt 0.818182 0.300000
vt 0.863636 0.200000
vt 0.863636 0.400000
vt 0.863636 0.600000
vt 0.863636 0.800000
vt 0.727273 0.700000
vt 0.727273 0.500000
vt 0.727273 0.300000
vt 0.772727 0.200000
vt 0.772727 0.400000
vt 0.772727 0.600000
vt 0.772727 0.800000
vt 0.704545 0.900000
vt 0.750000 0.900000
vt 0.613636 0.900000
vt 0.659091 0.900000
vt 0.681818 0.200000
vt 0.681818 0.400000
vt 0.681818 0.600000
vt 0.681818 0.800000
vt 0.522727 0.900000
vt 0.568182 0.900000
vt 0.431818 0.900000
vt 0.477273 0.900000
vt 0.386364 0.900000
vt 0.340909 0.900000
vt 0.250000 0.900000
vt 0.295455 0.900000
vt 0.068182 0.900000
vt 0.113636 0.900000
vt 0.022727 0.900000
vt 0.977273 0.900000
vt 0.886364 0.900000
vt 0.931818 0.900000
vt 0.840909 0.900000
vt 0.795455 0.900000
vt 0.772727 0.700000
vt 0.772727 0.300000
vt 0.772727 0.500000
vt 0.863636 0.700000
vt 0.863636 0.300000
vt 0.863636 0.500000
vt 0.954545 0.700000
vt 0.954545 0.300000
vt 0.954545 0.500000
vt 0.045455 0.700000
vt 0.045455 0.300000
vt 0.045455 0.500000
vt 0.136364 0.700000
vt 0.136364 0.300000
vt 0.136364 0.500000
vt 0.227273 0.700000
vt 0.227273 0.300000
vt 0.227273 0.500000
vt 0.318182 0.700000
vt 0.318182 0.300000
vt 0.318182 0.500000
vt 0.409091 0.700000
vt 0.409091 0.300000
vt 0.409091 0.500000
vt 0.500000 0.700000
vt 0.500000 0.300000
vt 0.500000 0.500000
vt 0.590909 0.700000
vt 0.590909 0.300000
vt 0.590909 0.500000
vt 0.681818 0.700000
vt 0.681818 0.300000
vt 0.681818 0.500000
s 1
usemtl Material.001
f 164/187/1 122/137/2 2/2/3 46/55/4
f 163/186/5 121/136/6 3/3/7 47/56/8
f 162/185/9 123/138/10 1/1/11 45/54/12
f 161/184/13 53/62/14 6/6/15 49/58/16
f 160/183/17 52/61/18 7/7/19 50/59/20
f 159/182/21 54/63/22 5/5/23 48/57/24
f 158/181/25 60/69/26 10/10/27 56/65/28
f 157/180/29 59/68/30 11/11/31 57/66/32
f 156/179/33 61/70/34 9/9/35 55/64/36
f 155/178/37 67/76/38 14/14/39 63/72/40
f 9/9/35 125/141/41 68/77/42
f 154/177/43 66/75/44 15/15/45 64/73/46
f 153/176/47 68/77/42 13/13/48 62/71/49
f 152/175/50 74/83/51 18/18/52 70/79/53
f 151/174/54 73/82/55 19/19/56 71/80/57
f 150/173/58 75/84/59 17/17/60 69/78/61
f 149/172/62 82/92/63 23/29/64 78/88/65
f 148/171/66 81/91/67 24/30/68 79/89/69
f 147/170/70 83/93/71 22/28/72 77/87/73
f 146/169/74 89/99/75 27/33/76 85/95/77
f 145/168/78 88/98/79 28/34/80 86/96/81
f 144/167/82 90/100/83 26/32/84 84/94/85
f 143/166/86 96/109/87 31/39/88 92/104/89
f 142/165/90 95/108/91 32/41/92 93/105/93
f 141/164/94 97/110/95 30/37/96 91/102/97
f 140/163/98 102/115/98 34/43/98 99/112/98
f 30/36/96 129/150/99 103/116/100
f 139/162/101 101/114/102 35/44/103 100/113/104
f 138/161/105 103/116/100 33/42/106 98/111/107
f 137/160/108 109/122/109 38/47/110 105/118/111
f 136/159/112 108/121/113 39/48/114 106/119/115
f 135/158/116 110/123/117 37/46/118 104/117/119
f 134/157/120 116/129/121 42/51/122 112/125/123
f 103/116/124 130/151/125 131/153/126 110/123/124 33/42/124
f 133/156/127 115/128/128 43/52/129 113/126/130
f 132/155/131 117/130/132 41/50/133 111/124/134
f 116/129/121 132/155/135 111/124/136 42/51/122
f 38/47/110 104/117/137 132/155/138 116/129/139
f 104/117/119 37/46/118 117/130/132 132/155/131
f 114/127/140 133/156/127 113/126/130 44/53/141
f 40/49/142 106/119/115 133/156/127 114/127/140
f 106/119/115 39/48/114 115/128/128 133/156/127
f 131/154/143 118/132/144 41/50/133 117/130/132 37/46/118
f 119/133/145 21/21/146 125/142/41 124/140/147
f 115/128/128 134/157/148 112/125/149 43/52/129
f 39/48/150 105/118/150 134/157/148 115/128/128
f 105/118/111 38/47/110 116/129/139 134/157/151
f 109/122/109 135/158/152 104/117/137 38/47/110
f 34/43/153 98/111/107 135/158/152 109/122/109
f 98/111/107 33/42/106 110/123/154 135/158/154
f 107/120/155 136/159/112 106/119/115 40/49/142
f 36/45/156 100/113/104 136/159/112 107/120/155
f 100/113/104 35/44/103 108/121/113 136/159/112
f 110/123/117 131/153/157 37/46/118
f 108/121/158 137/160/108 105/118/111 39/48/159
f 35/44/160 99/112/161 137/160/108 108/121/158
f 99/112/161 34/43/153 109/122/109 137/160/108
f 102/115/162 138/161/105 98/111/107 34/43/153
f 31/38/88 91/101/97 138/161/105 102/115/162
f 91/101/97 30/36/96 103/116/100 138/161/105
f 36/45/156 139/162/101 100/113/104
f 93/106/93 32/40/92 101/114/102 139/162/101
f 103/116/163 129/150/163 130/152/163
f 101/114/164 140/163/165 99/112/161 35/44/160
f 32/40/166 92/103/166 140/163/165 101/114/164
f 92/103/167 31/38/167 102/115/167 140/163/167
f 96/109/87 141/164/94 91/102/97 31/39/88
f 27/33/76 84/94/85 141/164/94 96/109/87
f 84/94/85 26/32/84 97/110/95 141/164/94
f 94/107/168 142/165/90 93/105/93
f 29/35/169 86/96/81 142/165/90 94/107/168
f 86/96/81 28/34/80 95/108/91 142/165/90
f 128/147/170 129/149/99 30/37/96 97/110/95 26/32/84
f 128/147/171 21/22/172 129/149/173
f 95/108/174 143/166/86 92/104/89 32/41/175
f 28/34/176 85/95/77 143/166/86 95/108/174
f 85/95/77 27/33/76 96/109/87 143/166/86
f 89/99/177 144/167/82 84/94/85 27/33/76
f 23/29/64 77/87/73 144/167/82 89/99/177
f 77/87/73 22/28/72 90/100/83 144/167/82
f 87/97/178 145/168/78 86/96/81 29/35/169
f 25/31/179 79/89/69 145/168/78 87/97/178
f 79/89/69 24/30/68 88/98/79 145/168/78
f 76/85/180 128/148/170 26/32/84 90/100/83 22/28/72
f 76/85/181 21/23/182 128/148/183
f 88/98/184 146/169/74 85/95/77 28/34/176
f 24/30/185 78/88/65 146/169/74 88/98/184
f 78/88/65 23/29/186 89/99/75 146/169/74
f 82/92/63 147/170/187 77/87/73 23/29/64
f 18/18/52 69/78/188 147/170/187 82/92/63
f 69/78/61 17/17/60 83/93/71 147/170/70
f 80/90/189 148/171/66 79/89/69 25/31/179
f 20/20/190 71/80/57 148/171/66 80/90/189
f 71/80/57 19/19/56 81/91/67 148/171/66
f 127/145/191 76/86/192 22/28/72 83/93/71 17/17/60
f 129/150/173 21/24/172 131/153/126 130/152/125
f 81/91/193 149/172/62 78/88/65 24/30/185
f 19/19/194 70/79/53 149/172/62 81/91/194
f 70/79/53 18/18/52 82/92/63 149/172/62
f 74/83/51 150/173/195 69/78/188 18/18/52
f 14/14/39 62/71/49 150/173/58 74/83/196
f 62/71/49 13/13/48 75/84/59 150/173/58
f 72/81/197 151/174/54 71/80/57 20/20/190
f 16/16/198 64/73/46 151/174/54 72/81/197
f 64/73/46 15/15/45 73/82/55 151/174/54
f 75/84/59 127/146/191 17/17/60
f 126/144/199 127/146/191 75/84/59 13/13/48 68/77/42 125/141/41
f 73/82/200 152/175/200 70/79/200 19/19/200
f 15/15/45 63/72/201 152/175/201 73/82/55
f 63/72/40 14/14/39 74/83/196 152/175/202
f 67/76/203 153/176/47 62/71/49 14/14/39
f 10/10/204 55/64/36 153/176/47 67/76/203
f 55/64/36 9/9/35 68/77/42 153/176/47
f 65/74/205 154/177/43 64/73/46 16/16/198
f 12/12/206 57/66/32 154/177/43 65/74/205
f 57/66/32 11/11/31 66/75/44 154/177/43
f 125/141/41 21/25/182 126/143/199
f 66/75/207 155/178/37 63/72/40 15/15/208
f 11/11/209 56/65/28 155/178/37 66/75/207
f 56/65/28 10/10/27 67/76/38 155/178/37
f 60/69/210 156/179/33 55/64/36 10/10/204
f 6/6/211 48/57/24 156/179/33 60/69/210
f 48/57/24 5/5/23 61/70/34 156/179/33
f 58/67/212 157/180/29 57/66/32 12/12/206
f 8/8/213 50/59/20 157/180/29 58/67/212
f 50/59/20 7/7/19 59/68/30 157/180/29
f 124/139/147 125/142/41 9/9/35 61/70/34 5/5/23
f 126/144/199 21/26/182 76/86/181 127/146/191
f 59/68/214 158/181/25 56/65/28 11/11/209
f 53/62/215 159/182/21 48/57/24 6/6/211
f 2/2/3 45/54/12 159/182/21 53/62/215
f 45/54/12 1/1/11 54/63/22 159/182/21
f 51/60/216 160/183/217 50/59/20 8/8/213
f 4/4/218 47/56/8 160/183/217 51/60/216
f 47/56/219 3/3/219 52/61/18 160/183/17
f 119/133/220 124/140/147 5/5/23 54/63/22 1/1/11
f 52/61/221 161/184/13 49/58/16 7/7/222
f 3/3/223 46/55/4 161/184/13 52/61/221
f 46/55/4 2/2/3 53/62/14 161/184/13
f 122/137/2 162/185/9 45/54/12 2/2/3
f 42/51/122 111/124/136 162/185/9 122/137/2
f 111/124/134 41/50/133 123/138/10 162/185/9
f 120/135/224 163/186/5 47/56/8 4/4/218
f 44/53/141 113/126/130 163/186/5 120/135/224
f 113/126/130 43/52/129 121/136/6 163/186/5
f 118/131/144 119/134/220 1/1/11 123/138/10 41/50/133
f 121/136/225 164/187/1 46/55/4 3/3/223
f 43/52/129 112/125/149 164/187/226 121/136/6
f 112/125/123 42/51/122 122/137/2 164/187/1
f 21/27/146 119/134/145 118/132/144 131/154/143
f 49/58/16 6/6/15 60/69/227 158/181/227 59/68/227 7/7/222
f 44/53/141 120/135/224 4/4/218 51/60/216 8/8/213 58/67/212 12/12/206 65/74/205 16/16/198 72/81/197 20/20/190 80/90/189 25/31/179 87/97/178 29/35/169 94/107/168 93/106/93 139/162/101 36/45/156 107/120/155 40/49/142 114/127/140
