# Blender 3.1.0
# www.blender.org
mtllib Hollow Log.mtl
o Cylinder
v 5.356335 0.125160 -1.571633
v -5.128763 -0.126013 -0.952196
v 4.823201 1.102592 -0.704337
v -4.424397 1.289843 0.003465
v 5.371549 1.137677 0.119992
v -4.424903 1.253322 0.229411
v 5.356335 0.125160 0.774439
v -5.230786 -0.049336 1.235257
v 5.368121 -0.890651 0.187921
v -5.218819 -1.080741 0.639735
v 4.949189 -0.865178 -0.949744
v -5.555347 -0.809287 -0.299982
v -0.943633 0.007848 -0.993596
v -3.257778 0.007075 -1.182511
v -4.082788 1.275748 0.035191
v -0.961173 1.373452 -0.465950
v -4.090561 1.324229 0.231605
v -1.047370 1.356815 0.889723
v 1.174039 1.335723 0.621982
v 3.213447 1.475726 0.710954
v -3.257778 0.007075 1.706780
v -1.096980 0.065062 1.492816
v 1.091623 0.145000 1.202120
v 3.236428 0.169886 1.202120
v -3.243263 -1.243941 0.984457
v -1.082464 -1.185954 0.770493
v 1.106139 -1.106016 0.448117
v 3.250943 -1.081130 0.448117
v -3.243263 -1.243941 -0.460188
v -1.028193 -0.954217 -0.611129
v 1.136816 -0.988876 -0.884729
v 3.251430 -0.948997 -1.031040
v 2.981562 0.826126 -1.432796
v 1.122300 0.262140 -1.638733
v 1.107785 1.513156 -0.884729
v 2.950083 1.241797 -1.154520
v 2.597580 0.797366 -1.437390
v 2.566938 1.205972 -1.167430
v 3.273407 1.543213 -0.965818
v 3.421654 0.390721 -1.666199
v 2.349008 0.312212 -1.681783
v 2.983717 1.766659 -2.408045
v 3.337887 2.104290 -2.758229
v 3.348471 1.964528 -2.851795
v 2.987261 1.722816 -2.437598
v 3.226861 2.322490 -3.464938
v 3.261155 2.325657 -3.463976
v 3.263968 2.288480 -3.488780
v 3.229607 2.285907 -3.489191
v 2.943315 1.617322 -2.389023
v 2.946728 1.303117 -2.034926
v 2.927986 1.550589 -1.869253
v 2.932128 1.755682 -2.295762
v 3.168518 2.228570 -3.134373
v 3.175477 2.135773 -3.195683
v 3.262681 2.142305 -3.194640
v 3.255532 2.236706 -3.131442
v 3.219364 1.954858 -2.853339
v 3.209062 2.092244 -2.762570
v 2.718123 1.285995 -2.037661
v 2.699880 1.529260 -1.876939
v 2.463731 1.842367 -2.640545
v 2.462968 1.851830 -2.634166
v 2.450333 1.820714 -2.632185
v 2.447924 1.850574 -2.612053
v 2.706193 1.786730 -2.489830
v 2.663819 1.783195 -2.427546
v 2.708343 1.760078 -2.507798
v 2.670604 1.699088 -2.484249
v -5.178370 0.882629 0.609900
v -5.536345 0.791122 -0.382605
v -3.257508 1.328369 -0.482710
v -3.275238 1.411262 0.890791
v -4.438042 3.009604 0.097457
v -4.437924 3.018120 0.044773
v -4.358271 3.014833 0.052171
v -4.360084 3.026137 0.097968
v -4.265391 2.066073 0.077134
v -4.277131 2.217454 0.064142
v -4.300558 2.214537 0.064929
v -4.333457 2.057600 0.079421
v -4.321482 2.403243 -0.102631
v -4.382831 1.846970 -0.131748
v -4.226151 1.865864 -0.113188
v -4.218603 2.415649 -0.090444
v -4.233455 1.902452 0.090740
v -4.223399 2.439674 0.043459
v -4.329502 2.387764 0.050414
v -4.395045 1.823395 0.101333
v -4.263353 2.355305 0.849718
v -4.266245 2.347415 0.837303
v -4.268498 2.347815 0.837712
v -4.269897 2.356467 0.850905
v -4.298863 2.072615 0.523154
v -4.282432 2.073632 0.520519
v -4.318378 1.998947 0.607451
v -4.270638 2.001903 0.599797
v -5.245301 1.201680 -0.678109
v -5.230786 -0.049336 -1.400432
v -5.245301 1.201680 0.766537
v -5.230786 -0.049336 1.488860
v -5.216270 -1.300352 0.766536
v -5.216270 -1.300352 -0.678109
v 5.356335 0.125160 -1.843243
v 5.341819 1.376176 -1.120920
v 5.341819 1.376176 0.323726
v 5.356335 0.125160 1.046049
v 5.370850 -1.125856 0.323726
v 5.370850 -1.125856 -1.120920
v 2.566938 1.205972 -1.167430
v 2.950083 1.241797 -1.154520
v 2.981562 0.826126 -1.432796
v 2.597580 0.797366 -1.437390
vn 0.0716 -0.0084 -0.9974
vn -0.4841 -0.0178 -0.8748
vn -0.5745 0.6894 -0.4413
vn 0.0101 0.8482 -0.5296
vn -0.6954 0.0062 0.7186
vn 0.7577 0.0814 0.6475
vn 0.4551 0.6654 0.5917
vn -0.6667 0.4595 0.5869
vn -0.0458 0.8716 0.4881
vn -0.6111 0.7019 0.3659
vn -0.6661 -0.0245 0.7455
vn -0.0135 -0.0093 0.9999
vn -0.5369 -0.7633 0.3593
vn 0.0330 -0.8605 0.5084
vn 0.0822 -0.9962 0.0298
vn -0.5041 -0.7369 -0.4504
vn 0.0707 -0.8629 -0.5005
vn 0.0275 -0.5522 0.8333
vn -0.0935 -0.8410 -0.5328
vn -0.0469 -0.8330 -0.5512
vn -0.0487 0.0499 -0.9976
vn -0.0754 -0.0163 -0.9970
vn -0.0520 -0.8252 -0.5624
vn -0.0156 -0.8191 -0.5734
vn -0.2350 -0.0540 -0.9705
vn -0.1354 0.0171 -0.9906
vn 0.0402 -0.0070 -0.9992
vn 0.6666 -0.6244 0.4071
vn 0.0040 -0.8803 0.4745
vn -0.0296 0.0123 -0.9995
vn 0.0420 -0.9038 0.4259
vn 0.0931 -0.8851 0.4560
vn 0.6366 -0.0304 0.7706
vn 0.0679 -0.2160 0.9740
vn 0.0821 0.1168 0.9898
vn 0.1086 -0.0318 0.9936
vn 0.6877 0.5847 0.4305
vn 0.0342 0.8153 0.5781
vn 0.0060 -0.5161 0.8565
vn 0.0010 0.8278 0.5610
vn 0.0424 0.8352 0.5482
vn 0.0260 0.8558 -0.5166
vn -0.0082 0.8888 -0.4583
vn -0.0351 0.3948 0.9181
vn -0.1127 0.8660 -0.4872
vn -0.0705 0.8643 -0.4979
vn 0.7005 -0.6180 -0.3570
vn -0.6540 -0.4409 -0.6148
vn -0.5897 -0.6098 -0.5295
vn 0.8159 -0.5146 -0.2636
vn -0.0428 0.5266 -0.8491
vn -0.0334 0.4964 -0.8674
vn -0.0327 0.4940 -0.8688
vn -0.6928 -0.6281 -0.3542
vn -0.7769 0.6017 0.1855
vn -0.5847 0.7376 -0.3377
vn -0.4880 -0.2372 -0.8400
vn -0.7546 0.6517 0.0771
vn 0.6039 0.6554 0.4536
vn 0.6923 0.6147 0.3780
vn -0.6554 0.7231 0.2181
vn 0.1041 0.9851 0.1366
vn 0.2860 0.8984 -0.3333
vn -0.1430 0.8341 -0.5328
vn -0.7753 0.5416 0.3249
vn 0.6014 -0.1719 -0.7802
vn 0.5482 0.7925 -0.2670
vn 0.5899 0.7881 0.1759
vn 0.7324 -0.5700 -0.3724
vn 0.6019 0.7397 0.3010
vn 0.7330 -0.5119 -0.4479
vn -0.6730 -0.5017 -0.5435
vn -0.7454 0.6482 0.1557
vn -0.5957 0.1905 -0.7803
vn -0.6280 0.5837 -0.5147
vn -0.9001 -0.1271 -0.4167
vn -0.9373 0.3318 -0.1067
vn -0.6840 -0.5853 -0.4354
vn -0.0892 0.1689 -0.9816
vn 0.3583 0.0086 -0.9336
vn -0.5333 -0.5020 0.6808
vn 0.2231 -0.4765 -0.8504
vn -0.1043 0.9945 -0.0062
vn -0.0648 0.9979 -0.0056
vn -0.0602 0.9967 -0.0550
vn -0.0994 0.9935 -0.0557
vn 0.5451 0.6810 -0.4890
vn -0.6062 0.5753 -0.5491
vn -0.5894 0.0919 -0.8026
vn 0.7449 0.1545 -0.6491
vn 0.7948 0.0354 -0.6058
vn -0.7554 -0.1020 -0.6473
vn -0.6309 -0.0232 -0.7755
vn 0.6920 0.0016 -0.7219
vn 0.6652 0.3255 0.6720
vn 0.6765 0.1759 0.7151
vn -0.6917 0.2004 0.6939
vn -0.7401 0.1806 0.6477
vn 0.7560 0.6459 -0.1062
vn -0.7757 0.6237 -0.0966
vn -0.6057 0.6590 -0.4459
vn 0.6033 0.6160 -0.5066
vn 0.2063 0.3460 0.9153
vn 0.3977 -0.1744 0.9008
vn -0.2915 0.1610 0.9429
vn -0.2098 0.4038 0.8905
vn -0.2672 0.8146 -0.5148
vn 0.7743 0.3573 0.5223
vn -0.9769 0.2107 -0.0355
vn 0.1389 -0.9004 0.4123
vn 0.6847 -0.6837 0.2525
vn 0.1503 -0.5716 0.8066
vn 0.0877 -0.9893 -0.1165
vn -0.9621 -0.0099 -0.2724
vn -0.9862 0.1524 -0.0650
vn -0.8336 -0.4812 -0.2711
vn -0.8365 -0.0357 -0.5468
vn -0.9191 0.3371 -0.2041
vn -0.9636 -0.2502 -0.0943
vn 0.8225 -0.5469 0.1560
vn 0.8123 0.0132 0.5831
vn 0.8115 0.0198 0.5841
vn 0.8491 -0.4304 0.3063
vn 0.9128 -0.4031 -0.0652
vn 0.9995 0.0203 0.0243
vn 0.6977 0.6620 -0.2738
vn 0.5759 0.7806 0.2428
vn 0.8353 0.4764 0.2744
vn -0.0000 1.0000 -0.0000
vn 0.0292 -0.9981 0.0550
vn -0.0045 -0.8386 -0.5448
vn -0.0477 0.4255 -0.9037
vn -0.0809 0.5067 -0.8583
vn 0.2456 0.6751 0.6957
vn 0.0011 0.9900 0.1411
vn 0.0115 -0.9871 0.1600
vn -0.0423 -0.0355 -0.9985
vn -0.0633 0.0153 -0.9979
vn -0.0632 0.0244 -0.9977
vn -0.0592 -0.4448 -0.8937
vn -0.0351 -0.5242 -0.8509
vn -0.0520 0.5018 -0.8634
vt 0.750000 0.444877
vt 0.000000 0.000000
vt 0.250000 0.447869
vt 0.000000 0.000000
vt 0.918769 0.347439
vt 0.763137 0.969950
vt 0.000000 0.000000
vt 0.918769 0.152561
vt 0.736801 0.969928
vt 0.750000 0.055123
vt 0.000000 0.000000
vt 0.250000 0.052131
vt 0.000000 0.000000
vt 0.581231 0.152561
vt 0.000000 0.000000
vt 0.078640 0.151066
vt 0.000000 0.000000
vt 0.581231 0.347439
vt 0.078640 0.348934
vt 1.000000 0.800000
vt 0.000000 0.000000
vt -0.000000 0.800000
vt -0.000000 0.900000
vt 1.000000 0.900000
vt 0.761830 0.930041
vt 0.000000 0.000000
vt 0.833333 0.800000
vt 0.738109 0.930062
vt 0.666667 0.800000
vt 0.666667 0.700000
vt 0.666667 0.600000
vt 0.000000 0.000000
vt 0.500000 0.900000
vt 0.500000 0.800000
vt 0.500000 0.700000
vt 0.000000 0.000000
vt 0.500000 0.600000
vt 0.000000 0.000000
vt 0.333333 0.900000
vt 0.333333 0.800000
vt 0.333333 0.700000
vt 0.333333 0.600000
vt 0.166667 0.900000
vt 0.166667 0.800000
vt 0.166667 0.700000
vt 0.166667 0.600000
vt 0.938379 0.619672
vt -0.000000 0.700000
vt 1.000000 0.700000
vt 0.833333 0.700000
vt 0.894969 0.619674
vt 0.938067 0.630328
vt 0.895281 0.630326
vt 0.833333 0.600000
vt -0.000000 0.600000
vt 1.000000 0.600000
vt -0.000000 0.650000
vt 1.000000 0.650000
vt 0.909965 0.630327
vt 0.894969 0.619674
vt 0.938379 0.619672
vt 0.923379 0.630327
vt 0.895281 0.630326
vt 0.894969 0.619674
vt 0.938379 0.619672
vt 0.938067 0.630328
vt 0.929082 0.630328
vt 0.938378 0.619672
vt 0.894969 0.619674
vt 0.904263 0.630326
vt 0.895281 0.630326
vt 0.938067 0.630328
vt 0.938378 0.619672
vt 0.894969 0.619674
vt 0.938067 0.630328
vt 0.895281 0.630326
vt 0.938067 0.630328
vt 0.895281 0.630326
vt 0.923379 0.630327
vt 0.909965 0.630327
vt 0.929082 0.630328
vt 0.904263 0.630326
vt 0.909965 0.630327
vt 0.904263 0.630326
vt 0.923379 0.630328
vt 0.929082 0.630328
vt 0.421359 0.151066
vt 0.421359 0.348934
vt 0.000000 0.000000
vt 0.833333 0.900000
vt 0.666667 0.900000
vt 0.736801 0.969928
vt 0.763137 0.969950
vt 0.761830 0.930041
vt 0.738109 0.930062
vt 0.737745 0.941158
vt 0.737602 0.945508
vt 0.737314 0.954290
vt 0.737170 0.958694
vt 0.763137 0.969950
vt 0.763137 0.969950
vt 0.761830 0.930041
vt 0.761830 0.930041
vt 0.738109 0.930062
vt 0.738109 0.930062
vt 0.736801 0.969927
vt 0.736801 0.969928
vt 0.737745 0.941158
vt 0.737602 0.945508
vt 0.737314 0.954290
vt 0.737170 0.958694
vt 0.737314 0.954290
vt 0.737602 0.945508
vt 0.737170 0.958694
vt 0.737745 0.941158
vt 0.833333 1.000000
vt 0.457846 0.370000
vt 1.000000 1.000000
vt -0.000000 1.000000
vt 0.250000 0.490000
vt 0.666667 1.000000
vt 0.457846 0.130000
vt 0.500000 1.000000
vt 0.250000 0.010000
vt 0.333333 1.000000
vt 0.042154 0.130000
vt 0.166667 1.000000
vt 0.042154 0.370000
vt -0.000000 0.500000
vt 1.000000 0.500000
vt 0.750000 0.490000
vt 0.833333 0.500000
vt 0.957846 0.370000
vt 0.666667 0.500000
vt 0.957846 0.130000
vt 0.500000 0.500000
vt 0.750000 0.010000
vt 0.333333 0.500000
vt 0.542154 0.130000
vt 0.166667 0.500000
vt 0.542154 0.370000
vt 0.895281 0.630326
vt 0.894969 0.619674
vt 0.938379 0.619672
vt 0.938067 0.630328
s 1
usemtl Material.001
f 14/24/1 99/118/2 98/116/3 72/90/4
f 88/106/5 87/105/6 77/95/7 74/92/8
f 73/91/9 100/121/10 101/123/11 21/33/12
f 21/33/12 101/123/11 102/125/13 25/39/14
f 6/9/15 4/6/15 15/25/15 17/28/15
f 25/39/14 102/125/13 103/127/16 29/43/17
f 29/43/17 103/127/16 99/119/2 14/23/1
f 33/47/18 36/51/18 38/53/18 37/52/18
f 109/140/19 32/46/20 40/55/21 104/129/22
f 31/45/23 30/44/24 13/22/25 34/48/26
f 30/44/24 29/43/17 14/23/1 13/22/27
f 108/138/28 28/42/29 32/46/20 109/140/19
f 32/46/20 31/45/23 34/48/26 41/57/30 40/55/21
f 27/41/31 26/40/32 30/44/24 31/45/23
f 26/40/32 25/39/14 29/43/17 30/44/24
f 107/136/33 24/37/34 28/42/29 108/138/28
f 28/42/29 27/41/31 31/45/23 32/46/20
f 23/35/35 22/34/36 26/40/32 27/41/31
f 22/34/36 21/33/12 25/39/14 26/40/32
f 106/134/37 20/31/38 24/37/34 107/136/33
f 24/37/34 23/35/39 27/41/31 28/42/29
f 19/30/40 18/29/41 22/34/36 23/35/35
f 18/29/41 73/91/9 21/33/12 22/34/36
f 105/132/42 39/54/43 20/31/38 106/134/37
f 20/31/38 19/30/40 23/35/35 24/37/44
f 35/50/45 16/27/46 18/29/41 19/30/40
f 16/27/46 72/90/4 73/91/9 18/29/41
f 104/130/22 40/56/21 39/54/43 105/132/42
f 34/49/26 13/20/25 16/27/46 35/50/45
f 13/20/27 14/24/1 72/90/4 16/27/46
f 51/68/47 60/77/48 58/75/49 44/61/50
f 39/54/43 35/50/45 19/30/40 20/31/38
f 110/142/51 113/145/52 41/58/30 34/49/26 35/50/45 39/54/43 40/56/21 112/144/53 111/143/51
f 113/145/52 112/144/53 40/56/21 41/58/30
f 55/72/54 54/71/55 46/63/56 49/66/57
f 61/78/58 52/69/59 43/60/60 59/76/61
f 67/84/62 66/83/63 63/80/64 65/82/65
f 52/69/59 51/68/47 44/61/50 43/60/60
f 48/65/66 49/66/57 46/63/56 47/64/67
f 57/74/68 56/73/69 48/65/66 47/64/67
f 56/73/69 55/72/54 49/66/57 48/65/66
f 54/71/55 57/74/68 47/64/67 46/63/56
f 111/143/70 112/144/71 51/68/47 52/69/59
f 113/145/72 110/142/73 61/78/58 60/77/48
f 110/142/73 111/143/70 52/69/59 61/78/58
f 112/144/71 113/145/72 60/77/48 51/68/47
f 59/76/61 43/60/60 57/74/68 54/71/55
f 44/61/50 58/75/49 55/72/54 56/73/69
f 43/60/60 44/61/50 56/73/69 57/74/68
f 58/75/49 59/76/61 54/71/55 55/72/54
f 45/62/74 42/59/75 59/76/61 58/75/49
f 50/67/76 45/62/74 58/75/49 60/77/48
f 42/59/75 53/70/77 61/78/58 59/76/61
f 53/70/77 50/67/76 60/77/48 61/78/58
f 64/81/78 65/82/65 63/80/64 62/79/79
f 66/83/63 68/85/80 62/79/79 63/80/64
f 69/86/81 67/84/81 65/82/65 64/81/78
f 68/85/80 69/86/82 64/81/78 62/79/79
f 45/62/74 50/67/76 69/86/82 68/85/80
f 50/67/76 53/70/77 67/84/81 69/86/81
f 42/59/75 45/62/74 68/85/80 66/83/63
f 53/70/77 42/59/75 66/83/63 67/84/62
f 6/9/83 4/6/84 98/116/3 100/121/10
f 4/6/84 15/25/85 72/90/4 98/116/3
f 17/28/86 6/9/83 100/121/10 73/91/9
f 15/25/85 17/28/86 73/91/9 72/90/4
f 76/94/87 75/93/88 74/92/8 77/95/7
f 82/100/89 88/106/5 74/92/8 75/93/88
f 87/105/6 85/103/90 76/94/87 77/95/7
f 85/103/90 82/100/89 75/93/88 76/94/87
f 15/25/91 4/6/92 83/101/93 84/102/94
f 84/102/94 83/101/93 82/100/89 85/103/90
f 17/28/95 15/25/91 84/102/94 86/104/96
f 86/104/96 84/102/94 85/103/90 87/105/6
f 4/6/92 6/9/97 89/107/98 83/101/93
f 83/101/93 89/107/98 88/106/5 82/100/89
f 6/9/97 17/28/95 86/104/96 89/107/98
f 95/113/99 94/112/100 92/110/101 91/109/102
f 79/97/103 78/96/104 86/104/96 87/105/6
f 81/99/105 80/98/106 88/106/5 89/107/98
f 78/96/104 81/99/105 89/107/98 86/104/96
f 80/98/106 79/97/103 87/105/6 88/106/5
f 93/111/107 90/108/108 91/109/102 92/110/101
f 94/112/100 96/114/109 93/111/107 92/110/101
f 96/114/110 97/115/111 90/108/108 93/111/112
f 97/115/111 95/113/99 91/109/102 90/108/108
f 78/96/104 79/97/103 95/113/99 97/115/111
f 81/99/113 78/96/104 97/115/111 96/114/110
f 80/98/106 81/99/105 96/114/109 94/112/100
f 79/97/103 80/98/106 94/112/100 95/113/99
f 2/3/114 71/88/115 98/117/3 99/120/2
f 71/88/115 70/87/116 100/122/10 98/117/3
f 70/87/116 8/12/117 101/124/11 100/122/10
f 8/12/117 10/16/118 102/126/13 101/124/11
f 10/16/118 12/19/119 103/128/16 102/126/13
f 12/19/119 2/3/114 99/120/2 103/128/16
f 3/5/120 1/1/121 104/131/122 105/133/123
f 5/8/124 3/5/120 105/133/123 106/135/37
f 7/10/125 5/8/124 106/135/37 107/137/33
f 9/14/126 7/10/125 107/137/33 108/139/28
f 11/18/127 9/14/126 108/139/28 109/141/128
f 1/1/121 11/18/127 109/141/128 104/131/122
f 38/53/129 36/51/129 111/143/129 110/142/129
f 36/51/129 33/47/129 112/144/129 111/143/129
f 33/47/129 37/52/129 113/145/129 112/144/129
f 37/52/129 38/53/129 110/142/129 113/145/129
usemtl Material.002
f 71/88/130 3/5/130 5/8/131 70/87/116
s 0
f 13/21/132 2/2/132 71/89/132 16/26/132
s 1
usemtl Material.001
f 27/41/133 23/35/133 7/10/133 9/14/133
f 3/4/134 20/32/134 24/38/134 7/11/134 5/7/134
usemtl Material.002
f 12/19/135 10/17/118 9/14/126 11/18/127
usemtl Material.001
f 23/36/136 7/11/136 24/38/136
usemtl Material.002
f 7/11/137 8/12/117 70/87/116 5/8/131
f 9/15/126 10/17/118 8/13/117 7/11/137
f 13/22/138 1/1/139 11/18/140 30/44/140
f 30/44/141 12/19/141 2/3/141 13/22/141
f 1/1/139 13/22/138 16/27/142 3/5/142
