# Blender 3.1.0
# www.blender.org
mtllib Hollow LogFixed.mtl
o Cylinder
v 5.370663 7.312879 -1.316584
v -5.114434 7.061706 -0.697148
v 4.823201 8.259447 -0.704337
v -4.424397 8.446698 0.003465
v 5.371549 8.294533 0.119992
v -4.424903 8.410177 0.229411
v 5.356335 7.282015 0.774439
v -5.230786 7.107519 1.235257
v 5.368121 6.266204 0.187921
v -5.218819 6.076114 0.639735
v 4.949189 6.291677 -0.949744
v -5.265667 6.291571 -0.267179
v -0.943633 7.164703 -0.993596
v -3.257778 7.163930 -1.182511
v -4.082788 8.432603 0.035191
v -0.961173 8.530308 -0.465950
v -4.090561 8.481084 0.231605
v -1.047370 8.513670 0.889723
v 1.174039 8.492578 0.621982
v 3.213447 8.632582 0.710954
v -3.257778 7.163930 1.706780
v -1.096980 7.221917 1.492816
v 1.091623 7.301855 1.202120
v 3.236428 7.326741 1.202120
v -3.243263 5.912914 0.984457
v -1.082464 5.970901 0.770493
v 1.106139 6.050839 0.448117
v 3.250943 6.075725 0.448117
v -3.243263 5.912914 -0.460188
v -1.028193 6.202638 -0.611129
v 1.136816 6.167979 -0.884729
v 3.251430 6.207858 -1.031040
v 2.981562 7.982981 -1.432796
v 1.122300 7.418995 -1.638733
v 1.107785 8.670012 -0.884729
v 2.950083 8.398652 -1.154520
v 2.597580 7.954221 -1.437390
v 2.566938 8.362827 -1.167430
v 3.273407 8.700068 -0.965818
v 3.421654 7.547576 -1.666199
v 2.349008 7.469067 -1.681783
v 2.983717 8.923514 -2.408045
v 3.337887 9.261145 -2.758229
v 3.348471 9.121383 -2.851795
v 2.987261 8.879671 -2.437598
v 3.226861 9.479345 -3.464938
v 3.261155 9.482512 -3.463976
v 3.263968 9.445335 -3.488780
v 3.229607 9.442762 -3.489191
v 2.943315 8.774178 -2.389023
v 2.946728 8.459972 -2.034926
v 2.927986 8.707443 -1.869253
v 2.932128 8.912538 -2.295762
v 3.168518 9.385425 -3.134373
v 3.175477 9.292627 -3.195683
v 3.262681 9.299160 -3.194640
v 3.255532 9.393560 -3.131442
v 3.219364 9.111713 -2.853339
v 3.209062 9.249100 -2.762570
v 2.718123 8.442850 -2.037661
v 2.699880 8.686115 -1.876939
v 2.463731 8.999222 -2.640545
v 2.462968 9.008684 -2.634166
v 2.450333 8.977569 -2.632185
v 2.447924 9.007429 -2.612053
v 2.706193 8.943584 -2.489830
v 2.663819 8.940050 -2.427546
v 2.708343 8.916933 -2.507798
v 2.670604 8.855943 -2.484249
v -5.178370 8.039484 0.609900
v -5.367379 7.969517 -0.303413
v -3.257508 8.485224 -0.482710
v -3.275238 8.568117 0.890791
v -4.438042 10.166459 0.097457
v -4.437924 10.174974 0.044773
v -4.358271 10.171688 0.052171
v -4.360084 10.182992 0.097968
v -4.265391 9.222929 0.077134
v -4.277131 9.374310 0.064142
v -4.300558 9.371392 0.064929
v -4.333457 9.214455 0.079421
v -4.321482 9.560099 -0.102631
v -4.382831 9.003825 -0.131748
v -4.226151 9.022718 -0.113188
v -4.218603 9.572504 -0.090444
v -4.233455 9.059307 0.090740
v -4.223399 9.596529 0.043459
v -4.329502 9.544619 0.050414
v -4.395045 8.980250 0.101333
v -4.263353 9.512160 0.849718
v -4.266245 9.504270 0.837303
v -4.268498 9.504669 0.837712
v -4.269897 9.513322 0.850905
v -4.298863 9.229470 0.523154
v -4.282432 9.230488 0.520519
v -4.318378 9.155803 0.607451
v -4.270638 9.158758 0.599797
v -5.245301 8.358535 -0.678109
v -5.112432 7.111727 -1.194257
v -5.245301 8.358535 0.766537
v -5.230786 7.107519 1.488860
v -5.216270 5.856503 0.766536
v -5.216270 5.856503 -0.678109
v 4.978120 7.271822 -1.652570
v 5.202209 8.426682 -1.063490
v 5.341819 8.533031 0.323726
v 5.356335 7.282015 1.046049
v 5.370850 6.030999 0.323726
v 5.310367 6.073009 -1.077149
v 2.566938 8.362827 -1.167430
v 2.950083 8.398652 -1.154520
v 2.981562 7.982981 -1.432796
v 2.597580 7.954221 -1.437390
vn 0.0465 -0.0089 -0.9989
vn -0.5473 -0.0181 -0.8367
vn -0.6136 0.6328 -0.4722
vn -0.0007 0.8403 -0.5421
vn -0.6954 0.0062 0.7186
vn 0.7577 0.0814 0.6475
vn 0.4551 0.6654 0.5917
vn -0.6667 0.4595 0.5869
vn -0.0458 0.8716 0.4881
vn -0.6505 0.6658 0.3654
vn -0.6661 -0.0245 0.7455
vn -0.0135 -0.0093 0.9999
vn -0.6050 -0.7073 0.3657
vn 0.0330 -0.8605 0.5084
vn 0.0822 -0.9962 0.0298
vn -0.5806 -0.6712 -0.4609
vn 0.0591 -0.8557 -0.5140
vn 0.0275 -0.5522 0.8333
vn 0.6918 -0.4964 -0.5245
vn -0.0304 -0.8270 -0.5614
vn -0.0098 0.0539 -0.9985
vn 0.5657 0.0021 -0.8246
vn -0.0520 -0.8252 -0.5624
vn -0.0156 -0.8191 -0.5734
vn -0.2350 -0.0540 -0.9705
vn -0.1354 0.0171 -0.9906
vn 0.0402 -0.0070 -0.9992
vn 0.6725 -0.6261 0.3947
vn 0.0066 -0.8819 0.4714
vn -0.0296 0.0123 -0.9995
vn 0.0420 -0.9038 0.4259
vn 0.0931 -0.8851 0.4560
vn 0.6366 -0.0304 0.7706
vn 0.0679 -0.2160 0.9740
vn 0.0821 0.1168 0.9898
vn 0.1086 -0.0318 0.9936
vn 0.7015 0.5821 0.4112
vn 0.0406 0.8196 0.5714
vn 0.0060 -0.5161 0.8565
vn 0.0010 0.8278 0.5610
vn 0.0424 0.8352 0.5482
vn 0.6982 0.5573 -0.4493
vn 0.0167 0.8820 -0.4710
vn -0.0351 0.3948 0.9181
vn -0.1127 0.8660 -0.4872
vn -0.0705 0.8643 -0.4979
vn 0.7005 -0.6180 -0.3570
vn -0.6540 -0.4409 -0.6148
vn -0.5897 -0.6098 -0.5295
vn 0.8159 -0.5146 -0.2636
vn -0.0428 0.5266 -0.8491
vn -0.0334 0.4964 -0.8674
vn -0.0327 0.4940 -0.8688
vn -0.6928 -0.6281 -0.3542
vn -0.7769 0.6017 0.1855
vn -0.5847 0.7376 -0.3377
vn -0.4880 -0.2372 -0.8400
vn -0.7546 0.6517 0.0771
vn 0.6039 0.6554 0.4536
vn 0.6923 0.6147 0.3780
vn -0.6554 0.7231 0.2181
vn 0.1041 0.9851 0.1366
vn 0.2860 0.8984 -0.3333
vn -0.1430 0.8341 -0.5328
vn -0.7753 0.5416 0.3249
vn 0.6014 -0.1719 -0.7802
vn 0.5482 0.7925 -0.2670
vn 0.5899 0.7881 0.1759
vn 0.7324 -0.5700 -0.3724
vn 0.6019 0.7397 0.3010
vn 0.7330 -0.5119 -0.4479
vn -0.6730 -0.5017 -0.5435
vn -0.7454 0.6482 0.1557
vn -0.5957 0.1905 -0.7803
vn -0.6280 0.5837 -0.5147
vn -0.9001 -0.1271 -0.4167
vn -0.9373 0.3318 -0.1067
vn -0.6840 -0.5853 -0.4354
vn -0.0892 0.1689 -0.9816
vn 0.3583 0.0086 -0.9336
vn -0.5333 -0.5020 0.6808
vn 0.2231 -0.4765 -0.8504
vn -0.1043 0.9945 -0.0062
vn -0.0648 0.9979 -0.0056
vn -0.0602 0.9967 -0.0550
vn -0.0994 0.9935 -0.0557
vn 0.5451 0.6810 -0.4890
vn -0.6062 0.5753 -0.5491
vn -0.5894 0.0919 -0.8026
vn 0.7449 0.1545 -0.6491
vn 0.7948 0.0354 -0.6058
vn -0.7554 -0.1020 -0.6473
vn -0.6309 -0.0232 -0.7755
vn 0.6920 0.0016 -0.7219
vn 0.6652 0.3255 0.6720
vn 0.6765 0.1759 0.7151
vn -0.6917 0.2004 0.6939
vn -0.7401 0.1806 0.6477
vn 0.7560 0.6459 -0.1062
vn -0.7757 0.6237 -0.0966
vn -0.6057 0.6590 -0.4459
vn 0.6033 0.6160 -0.5066
vn 0.2063 0.3460 0.9153
vn 0.3977 -0.1744 0.9008
vn -0.2915 0.1610 0.9429
vn -0.2098 0.4038 0.8905
vn -0.2672 0.8146 -0.5148
vn 0.7743 0.3573 0.5223
vn -0.9769 0.2107 -0.0355
vn 0.1389 -0.9004 0.4123
vn 0.6847 -0.6837 0.2525
vn 0.1503 -0.5716 0.8066
vn 0.0877 -0.9893 -0.1165
vn -0.9907 -0.0001 -0.1364
vn -0.9450 -0.3259 -0.0285
vn -0.8140 -0.5096 -0.2788
vn -0.8365 -0.0357 -0.5468
vn -0.8794 0.4183 -0.2271
vn -0.8429 0.4567 0.2844
vn 0.9160 -0.3845 -0.1144
vn 0.9985 0.0526 -0.0131
vn 0.9219 -0.3795 -0.0785
vn 0.9995 0.0203 0.0243
vn 0.7055 0.6489 -0.2850
vn 0.5983 0.7149 0.3618
vn -0.0000 1.0000 -0.0000
vn 0.0283 -0.9984 0.0483
vn -0.0049 -0.8372 -0.5469
vn -0.0780 0.3665 -0.9272
vn -0.0809 0.5067 -0.8583
vn 0.2456 0.6751 0.6957
vn 0.0115 -0.9871 0.1600
vn -0.0423 -0.0355 -0.9985
vn -0.0439 -0.3433 -0.9382
vn -0.0684 -0.4160 -0.9068
vn -0.0373 0.4345 -0.8999
vn 0.0530 0.3916 0.9186
vn 0.0557 -0.4767 0.8773
vn -0.0558 0.4574 -0.8875
vt 0.000000 0.000000
vt 0.750000 0.444877
vt 0.000000 0.000000
vt 0.250000 0.447869
vt 0.000000 0.000000
vt 0.918769 0.347439
vt 0.763137 0.969950
vt 0.000000 0.000000
vt 0.918769 0.152561
vt 0.736801 0.969928
vt 0.750000 0.055123
vt 0.000000 0.000000
vt 0.250000 0.052131
vt 0.581231 0.152561
vt 0.000000 0.000000
vt 0.078640 0.151066
vt 0.581231 0.347439
vt 0.078640 0.348934
vt 1.000000 0.800000
vt -0.000000 0.800000
vt 0.000000 0.000000
vt -0.000000 0.900000
vt 1.000000 0.900000
vt 0.761830 0.930041
vt 0.000000 0.000000
vt 0.833333 0.800000
vt 0.738109 0.930062
vt 0.666667 0.800000
vt 0.666667 0.700000
vt 0.666667 0.600000
vt 0.000000 0.000000
vt 0.500000 0.900000
vt 0.500000 0.800000
vt 0.500000 0.700000
vt 0.000000 0.000000
vt 0.500000 0.600000
vt 0.000000 0.000000
vt 0.333333 0.900000
vt 0.333333 0.800000
vt 0.333333 0.700000
vt 0.333333 0.600000
vt 0.166667 0.900000
vt 0.166667 0.800000
vt 0.166667 0.700000
vt 0.166667 0.600000
vt 0.938379 0.619672
vt -0.000000 0.700000
vt 1.000000 0.700000
vt 0.833333 0.700000
vt 0.894969 0.619674
vt 0.938067 0.630328
vt 0.895281 0.630326
vt 0.833333 0.600000
vt -0.000000 0.600000
vt 1.000000 0.600000
vt -0.000000 0.650000
vt 1.000000 0.650000
vt 0.909965 0.630327
vt 0.894969 0.619674
vt 0.938379 0.619672
vt 0.923379 0.630327
vt 0.895281 0.630326
vt 0.894969 0.619674
vt 0.938379 0.619672
vt 0.938067 0.630328
vt 0.929082 0.630328
vt 0.938378 0.619672
vt 0.894969 0.619674
vt 0.904263 0.630326
vt 0.895281 0.630326
vt 0.938067 0.630328
vt 0.938378 0.619672
vt 0.894969 0.619674
vt 0.938067 0.630328
vt 0.895281 0.630326
vt 0.938067 0.630328
vt 0.895281 0.630326
vt 0.923379 0.630327
vt 0.909965 0.630327
vt 0.929082 0.630328
vt 0.904263 0.630326
vt 0.909965 0.630327
vt 0.904263 0.630326
vt 0.923379 0.630328
vt 0.929082 0.630328
vt 0.421359 0.151066
vt 0.000000 0.000000
vt 0.421359 0.348934
vt 0.833333 0.900000
vt 0.666667 0.900000
vt 0.736801 0.969928
vt 0.763137 0.969950
vt 0.761830 0.930041
vt 0.738109 0.930062
vt 0.737745 0.941158
vt 0.737602 0.945508
vt 0.737314 0.954290
vt 0.737170 0.958694
vt 0.763137 0.969950
vt 0.763137 0.969950
vt 0.761830 0.930041
vt 0.761830 0.930041
vt 0.738109 0.930062
vt 0.738109 0.930062
vt 0.736801 0.969927
vt 0.736801 0.969928
vt 0.737745 0.941158
vt 0.737602 0.945508
vt 0.737314 0.954290
vt 0.737170 0.958694
vt 0.737314 0.954290
vt 0.737602 0.945508
vt 0.737170 0.958694
vt 0.737745 0.941158
vt 0.833333 1.000000
vt 0.457846 0.370000
vt 1.000000 1.000000
vt -0.000000 1.000000
vt 0.250000 0.490000
vt 0.666667 1.000000
vt 0.457846 0.130000
vt 0.500000 1.000000
vt 0.250000 0.010000
vt 0.333333 1.000000
vt 0.042154 0.130000
vt 0.166667 1.000000
vt 0.042154 0.370000
vt -0.000000 0.500000
vt 1.000000 0.500000
vt 0.750000 0.490000
vt 0.833333 0.500000
vt 0.957846 0.370000
vt 0.666667 0.500000
vt 0.957846 0.130000
vt 0.500000 0.500000
vt 0.750000 0.010000
vt 0.333333 0.500000
vt 0.542154 0.130000
vt 0.166667 0.500000
vt 0.542154 0.370000
vt 0.895281 0.630326
vt 0.894969 0.619674
vt 0.938379 0.619672
vt 0.938067 0.630328
s 1
usemtl Material.001
f 14/23/1 99/117/2 98/115/3 72/89/4
f 88/105/5 87/104/6 77/94/7 74/91/8
f 73/90/9 100/120/10 101/122/11 21/32/12
f 21/32/12 101/122/11 102/124/13 25/38/14
f 6/10/15 4/7/15 15/24/15 17/27/15
f 25/38/14 102/124/13 103/126/16 29/42/17
f 29/42/17 103/126/16 99/118/2 14/22/1
f 33/46/18 36/50/18 38/52/18 37/51/18
f 109/139/19 32/45/20 40/54/21 104/128/22
f 31/44/23 30/43/24 13/20/25 34/47/26
f 30/43/24 29/42/17 14/22/1 13/20/27
f 108/137/28 28/41/29 32/45/20 109/139/19
f 32/45/20 31/44/23 34/47/26 41/56/30 40/54/21
f 27/40/31 26/39/32 30/43/24 31/44/23
f 26/39/32 25/38/14 29/42/17 30/43/24
f 107/135/33 24/36/34 28/41/29 108/137/28
f 28/41/29 27/40/31 31/44/23 32/45/20
f 23/34/35 22/33/36 26/39/32 27/40/31
f 22/33/36 21/32/12 25/38/14 26/39/32
f 106/133/37 20/30/38 24/36/34 107/135/33
f 24/36/34 23/34/39 27/40/31 28/41/29
f 19/29/40 18/28/41 22/33/36 23/34/35
f 18/28/41 73/90/9 21/32/12 22/33/36
f 105/131/42 39/53/43 20/30/38 106/133/37
f 20/30/38 19/29/40 23/34/35 24/36/44
f 35/49/45 16/26/46 18/28/41 19/29/40
f 16/26/46 72/89/4 73/90/9 18/28/41
f 104/129/22 40/55/21 39/53/43 105/131/42
f 34/48/26 13/19/25 16/26/46 35/49/45
f 13/19/27 14/23/1 72/89/4 16/26/46
f 51/67/47 60/76/48 58/74/49 44/60/50
f 39/53/43 35/49/45 19/29/40 20/30/38
f 110/141/51 113/144/52 41/57/30 34/48/26 35/49/45 39/53/43 40/55/21 112/143/53 111/142/51
f 113/144/52 112/143/53 40/55/21 41/57/30
f 55/71/54 54/70/55 46/62/56 49/65/57
f 61/77/58 52/68/59 43/59/60 59/75/61
f 67/83/62 66/82/63 63/79/64 65/81/65
f 52/68/59 51/67/47 44/60/50 43/59/60
f 48/64/66 49/65/57 46/62/56 47/63/67
f 57/73/68 56/72/69 48/64/66 47/63/67
f 56/72/69 55/71/54 49/65/57 48/64/66
f 54/70/55 57/73/68 47/63/67 46/62/56
f 111/142/70 112/143/71 51/67/47 52/68/59
f 113/144/72 110/141/73 61/77/58 60/76/48
f 110/141/73 111/142/70 52/68/59 61/77/58
f 112/143/71 113/144/72 60/76/48 51/67/47
f 59/75/61 43/59/60 57/73/68 54/70/55
f 44/60/50 58/74/49 55/71/54 56/72/69
f 43/59/60 44/60/50 56/72/69 57/73/68
f 58/74/49 59/75/61 54/70/55 55/71/54
f 45/61/74 42/58/75 59/75/61 58/74/49
f 50/66/76 45/61/74 58/74/49 60/76/48
f 42/58/75 53/69/77 61/77/58 59/75/61
f 53/69/77 50/66/76 60/76/48 61/77/58
f 64/80/78 65/81/65 63/79/64 62/78/79
f 66/82/63 68/84/80 62/78/79 63/79/64
f 69/85/81 67/83/81 65/81/65 64/80/78
f 68/84/80 69/85/82 64/80/78 62/78/79
f 45/61/74 50/66/76 69/85/82 68/84/80
f 50/66/76 53/69/77 67/83/81 69/85/81
f 42/58/75 45/61/74 68/84/80 66/82/63
f 53/69/77 42/58/75 66/82/63 67/83/62
f 6/10/83 4/7/84 98/115/3 100/120/10
f 4/7/84 15/24/85 72/89/4 98/115/3
f 17/27/86 6/10/83 100/120/10 73/90/9
f 15/24/85 17/27/86 73/90/9 72/89/4
f 76/93/87 75/92/88 74/91/8 77/94/7
f 82/99/89 88/105/5 74/91/8 75/92/88
f 87/104/6 85/102/90 76/93/87 77/94/7
f 85/102/90 82/99/89 75/92/88 76/93/87
f 15/24/91 4/7/92 83/100/93 84/101/94
f 84/101/94 83/100/93 82/99/89 85/102/90
f 17/27/95 15/24/91 84/101/94 86/103/96
f 86/103/96 84/101/94 85/102/90 87/104/6
f 4/7/92 6/10/97 89/106/98 83/100/93
f 83/100/93 89/106/98 88/105/5 82/99/89
f 6/10/97 17/27/95 86/103/96 89/106/98
f 95/112/99 94/111/100 92/109/101 91/108/102
f 79/96/103 78/95/104 86/103/96 87/104/6
f 81/98/105 80/97/106 88/105/5 89/106/98
f 78/95/104 81/98/105 89/106/98 86/103/96
f 80/97/106 79/96/103 87/104/6 88/105/5
f 93/110/107 90/107/108 91/108/102 92/109/101
f 94/111/100 96/113/109 93/110/107 92/109/101
f 96/113/110 97/114/111 90/107/108 93/110/112
f 97/114/111 95/112/99 91/108/102 90/107/108
f 78/95/104 79/96/103 95/112/99 97/114/111
f 81/98/113 78/95/104 97/114/111 96/113/110
f 80/97/106 81/98/105 96/113/109 94/111/100
f 79/96/103 80/97/106 94/111/100 95/112/99
f 2/4/114 71/88/115 98/116/3 99/119/2
f 71/88/115 70/86/116 100/121/10 98/116/3
f 70/86/116 8/13/117 101/123/11 100/121/10
f 8/13/117 10/16/118 102/125/13 101/123/11
f 10/16/118 12/18/119 103/127/16 102/125/13
f 12/18/119 2/4/114 99/119/2 103/127/16
f 3/6/120 1/2/121 104/130/22 105/132/42
f 5/9/122 3/6/120 105/132/42 106/134/37
f 7/11/123 5/9/122 106/134/37 107/136/33
f 9/14/124 7/11/123 107/136/33 108/138/28
f 11/17/125 9/14/124 108/138/28 109/140/19
f 1/2/121 11/17/125 109/140/19 104/130/22
f 38/52/126 36/50/126 111/142/126 110/141/126
f 36/50/126 33/46/126 112/143/126 111/142/126
f 33/46/126 37/51/126 113/144/126 112/143/126
f 37/51/126 38/52/126 110/141/126 113/144/126
f 71/87/115 3/5/127 5/8/128 70/86/116
usemtl Material.002
f 13/21/129 2/3/129 71/87/129 16/25/129
usemtl Material.001
f 27/40/130 23/34/130 7/11/130 9/14/130
f 3/5/131 20/31/131 24/37/131 7/12/131 5/8/131
f 12/18/119 10/16/118 9/15/124 11/17/125
f 23/35/132 7/12/132 24/37/132
f 7/12/133 8/13/117 70/86/116 5/9/128
f 9/15/124 10/16/118 8/13/117 7/12/133
usemtl Material.002
f 13/20/134 1/2/134 11/17/134 30/43/134
f 30/43/135 12/18/135 2/4/135 13/20/135
f 1/2/136 13/20/136 16/26/136 3/6/136
usemtl Material.001
f 11/17/125 1/2/137 2/4/137 12/18/119
f 3/5/138 71/87/138 2/3/138 13/21/138 1/1/138
f 3/6/139 1/2/139 2/4/139 71/88/139
