# Blender 3.1.0
# www.blender.org
mtllib Stick2 Fixed.mtl
o Cylinder
v 0.000616 -1.163018 0.057401
v -0.015897 1.153305 0.079319
v 0.062089 -1.163018 0.019325
v 0.054893 1.153292 0.031742
v 0.039184 -1.163018 -0.041099
v 0.028311 1.153460 -0.042595
v -0.037965 -1.163018 -0.041099
v -0.061087 1.153845 -0.043331
v -0.060868 -1.163018 0.019280
v -0.087493 1.153454 0.031556
v 0.022350 -0.759226 0.128840
v -0.013412 -0.252268 0.123405
v -0.049620 -0.020697 0.072553
v -0.057571 0.369089 0.058057
v -0.061676 0.757373 0.088665
v 0.025440 0.724497 -0.025333
v 0.031079 0.680286 -0.012799
v 0.048913 0.004849 -0.014579
v 0.017270 0.724641 -0.081283
v 0.011193 0.680551 -0.062697
v 0.018955 0.010353 -0.106910
v -0.133521 0.761117 -0.130504
v -0.132201 0.325850 -0.095993
v -0.118695 0.273654 -0.092549
v -0.035984 -0.389494 -0.043891
v -0.040075 -0.789043 -0.046333
v -0.177965 0.759509 0.003772
v -0.133142 0.326615 -0.072130
v -0.129127 0.272788 -0.088606
v -0.117401 -0.254274 0.060359
v -0.066960 -0.748894 0.079256
v 0.000611 -1.163018 0.076916
v 0.083112 -1.163018 0.025815
v 0.079531 1.153217 0.039848
v -0.015855 1.153229 0.103954
v 0.051599 -1.163018 -0.057316
v 0.042774 1.153494 -0.062947
v -0.050378 -1.163018 -0.057316
v -0.075533 1.153937 -0.063921
v -0.081891 -1.163018 0.025763
v -0.112089 1.153479 0.039755
v 0.054820 1.117115 0.031631
v -0.015970 1.117128 0.079207
v 0.028239 1.117284 -0.042707
v -0.061160 1.117668 -0.043442
v -0.087565 1.117278 0.031445
v 0.000616 -1.146816 0.057401
v 0.062089 -1.146816 0.019325
v 0.039184 -1.146816 -0.041099
v -0.037965 -1.146816 -0.041099
v -0.060868 -1.146816 0.019280
v 0.096456 -0.450494 0.027421
v 0.115970 -0.490938 0.033823
v 0.085366 -0.449187 -0.014068
v 0.112135 -0.494485 0.017162
v 0.100219 -0.507159 0.079824
v 0.078017 -0.530528 -0.006875
v 0.098926 -0.422916 0.042171
v 0.073561 -0.419807 -0.055636
v 0.227071 -0.475738 0.003964
v 0.221778 -0.480865 -0.020240
v 0.223144 -0.454849 -0.010151
v 0.217295 -0.454203 -0.030962
v 0.212669 -0.486565 0.009454
v 0.208834 -0.490112 -0.007207
v 0.224051 -0.444723 -0.004735
v 0.212961 -0.443416 -0.046223
v 0.277762 -0.473446 -0.008811
v 0.272470 -0.478572 -0.033015
v 0.273836 -0.452556 -0.022925
v 0.267986 -0.451910 -0.043737
v 0.104024 -0.488397 0.052932
v 0.093185 -0.498423 0.005839
v 0.231619 -0.482627 0.020777
v 0.220780 -0.492652 -0.026316
v 0.242620 -0.503830 -0.004098
v 0.231780 -0.513856 -0.051191
v 0.223669 -0.507768 -0.015421
v 0.219834 -0.511315 -0.032082
v 0.035060 0.758291 -0.001627
v 0.039873 0.646453 0.032885
v 0.007831 0.759433 -0.129752
v 0.001903 0.646267 -0.084978
v 0.035060 0.758291 -0.001627
v 0.039873 0.646453 0.032885
v 0.007831 0.759433 -0.129752
v 0.001903 0.646267 -0.084978
v 0.199322 0.734784 -0.077473
v 0.231442 0.703884 -0.064940
v 0.192868 0.729772 -0.133423
v 0.215786 0.691619 -0.114838
v -0.120691 0.368899 -0.136192
v -0.097543 0.230784 -0.132177
v -0.159564 0.369205 -0.019549
v -0.136888 0.229938 -0.057619
v -0.301515 0.301708 -0.169368
v -0.300818 0.274037 -0.173011
v -0.302336 0.300591 -0.145601
v -0.308346 0.274587 -0.169067
v -0.234799 0.292125 -0.107331
v -0.233978 0.293242 -0.131098
v -0.240808 0.266121 -0.130796
v -0.233280 0.265572 -0.134740
v 0.148874 0.649822 -0.038869
v 0.133218 0.637558 -0.088768
v 0.116754 0.680722 -0.051403
v 0.110300 0.675711 -0.107353
vn 0.5611 -0.0555 0.8259
vn 0.5655 -0.0605 0.8225
vn 0.6218 -0.1265 0.7729
vn 0.9618 -0.0602 -0.2669
vn 0.1332 0.0527 -0.9897
vn 0.1417 0.0448 -0.9889
vn 0.0079 0.1662 -0.9861
vn 0.5550 0.0015 -0.8319
vn -0.9453 0.0772 -0.3169
vn -0.9447 0.0840 -0.3169
vn -0.9304 0.1875 -0.3151
vn -0.5863 -0.0250 0.8097
vn -0.5853 -0.0204 0.8105
vn -0.5739 0.0280 0.8185
vn 0.5270 -0.0000 -0.8499
vn -0.5078 -0.0877 0.8570
vn -0.5063 -0.0568 0.8605
vn -0.5061 -0.0530 0.8609
vn -0.5554 0.0500 0.8301
vn -0.5643 0.0631 0.8232
vn -0.6406 0.1050 0.7606
vn -0.7621 -0.0464 0.6458
vn -0.6935 -0.0733 0.7167
vn -0.6944 -0.0733 0.7159
vn -0.9589 0.0535 -0.2787
vn -0.9370 -0.0134 -0.3491
vn -0.9458 0.0102 -0.3246
vn -0.8827 -0.1274 -0.4524
vn -0.5278 -0.1208 -0.8408
vn -0.8792 -0.0994 -0.4661
vn -0.3797 -0.0785 -0.9218
vn -0.0633 0.9976 0.0295
vn 0.0963 0.9941 0.0500
vn -0.1635 0.9864 0.0161
vn -0.9431 -0.0939 -0.3191
vn -0.9464 -0.0472 -0.3195
vn 0.1115 0.0565 -0.9922
vn 0.1250 0.0365 -0.9915
vn 0.7159 -0.1170 -0.6884
vn 0.6162 -0.0475 -0.7862
vn 0.5527 -0.0423 -0.8323
vn 0.2914 0.0205 -0.9564
vn 0.5706 -0.0251 -0.8209
vn 0.9537 -0.0079 -0.3006
vn 0.8964 -0.0201 0.4428
vn 0.9427 0.1099 0.3150
vn 0.9551 0.0606 -0.2899
vn 0.9512 0.0361 -0.3065
vn 0.1500 -0.9799 0.1316
vn 0.5543 -0.8318 0.0305
vn 0.1887 -0.9743 0.1233
vn 0.6351 -0.0999 0.7659
vn 0.6240 -0.0750 0.7778
vn 0.6630 0.1818 0.7262
vn 0.6046 0.0819 0.7923
vn 0.6253 0.1084 0.7728
vn 0.4975 0.0113 0.8674
vn 0.5159 -0.0146 0.8565
vn -0.0000 -1.0000 -0.0000
vn 0.0015 1.0000 0.0026
vn 0.0019 1.0000 0.0025
vn 0.0028 1.0000 0.0025
vn 0.0026 1.0000 0.0042
vn 0.0011 1.0000 0.0037
vn 0.0020 1.0000 0.0031
vn 0.9431 -0.0029 0.3325
vn -0.0082 -0.0031 1.0000
vn -0.9416 0.0009 0.3367
vn -0.5578 0.0037 -0.8300
vn 0.9350 -0.0000 0.3547
vn -0.0000 -0.0000 1.0000
vn -0.9351 -0.0000 0.3545
vn -0.5266 -0.0000 -0.8501
vn -0.2077 -0.3948 -0.8950
vn 0.9895 -0.1338 -0.0538
vn 0.9226 -0.2535 -0.2909
vn 0.9369 -0.0400 -0.3472
vn 0.9910 0.0606 -0.1195
vn 0.0914 -0.9781 0.1872
vn 0.0787 0.8791 0.4700
vn 0.0788 0.8790 0.4703
vn -0.0349 0.9986 0.0408
vn 0.1757 0.5736 0.8001
vn -0.2106 -0.9452 0.2497
vn -0.0747 -0.9419 0.3274
vn 0.9709 0.0393 -0.2364
vn 0.9086 0.3114 -0.2784
vn 0.8439 0.4505 -0.2914
vn 0.9698 0.0551 -0.2377
vn 0.9664 0.0466 -0.2529
vn 0.9673 0.0309 -0.2516
vn 0.9688 0.0438 -0.2441
vn 0.0786 0.8794 0.4696
vn 0.0789 0.8788 0.4707
vn -0.2879 -0.8924 0.3475
vn -0.1048 -0.8718 0.4785
vn -0.0882 -0.8857 0.4557
vn -0.0916 -0.9695 0.2275
vn -0.8168 0.2076 -0.5382
vn 0.6577 0.6915 -0.2986
vn -0.0000 1.0000 -0.0000
vn 0.9740 -0.0417 -0.2229
vn 0.9739 -0.0417 -0.2229
vn 0.9546 -0.0655 -0.2907
vn 0.9545 -0.0655 -0.2908
vn 0.9461 -0.1465 -0.2888
vn 0.9674 -0.1230 -0.2214
vn 0.9674 -0.1229 -0.2214
vn 0.8089 0.5296 -0.2554
vn 0.1270 0.4214 0.8979
vn 0.0273 0.4000 0.9161
vn 0.2459 0.4412 0.8631
vn -0.0193 0.9977 -0.0653
vn -0.5502 0.8349 -0.0113
vn -0.1250 0.9906 -0.0562
vn -0.2256 -0.4500 -0.8640
vn 0.0021 -0.4369 -0.8995
vn -0.1503 -0.4483 -0.8811
vn -0.9333 -0.1591 -0.3220
vn -0.8818 -0.1378 -0.4510
vn -0.8893 -0.0480 -0.4549
vn -0.9426 -0.0736 -0.3257
vn -0.9327 0.2318 -0.2763
vn -0.3181 -0.4701 0.8233
vn -0.4673 -0.5303 0.7074
vn -0.3387 -0.8467 0.4103
vn -0.2582 -0.8590 0.4421
vn -0.0976 -0.9941 -0.0477
vn 0.0007 -0.9997 0.0264
vn 0.4162 0.0936 -0.9044
vn 0.5010 0.1254 -0.8563
vn 0.4094 0.0910 -0.9078
vn 0.3257 0.0603 -0.9435
vn 0.0432 -0.9974 0.0584
vn -0.2333 -0.4304 0.8720
vn -0.3118 0.9501 -0.0045
vn -0.3860 -0.4444 -0.8084
vn 0.4257 0.8999 -0.0948
vn 0.3640 0.4543 0.8131
vn -0.2465 -0.9479 0.2018
vt 0.750014 0.426780
vt 0.250199 0.426223
vt 0.920090 0.303322
vt 0.419491 0.302912
vt 0.856719 0.108214
vt 0.356482 0.109190
vt 0.643274 0.108229
vt 0.143328 0.108840
vt 0.579910 0.303292
vt 0.080252 0.302831
vt 0.000000 0.583333
vt 1.000000 0.583333
vt 0.000000 0.666667
vt 1.000000 0.666667
vt 0.000000 0.750000
vt 1.000000 0.750000
vt 0.000000 0.833333
vt 1.000000 0.833333
vt 0.000000 0.916667
vt 1.000000 0.916667
vt 0.743689 0.891216
vt 0.742767 0.858722
vt 0.800000 0.750000
vt 0.656704 0.891425
vt 0.657629 0.858512
vt 0.600000 0.750000
vt 0.400000 0.916667
vt 0.320662 0.807605
vt 0.308822 0.775743
vt 0.400000 0.666667
vt 0.400000 0.583333
vt 0.200000 0.916667
vt 0.280545 0.807591
vt 0.292642 0.775750
vt 0.200000 0.666667
vt 0.200000 0.583333
vt 0.000000 0.500000
vt 1.000000 0.500000
vt 0.750000 0.490000
vt 0.800000 0.500000
vt 0.978254 0.324164
vt 0.800000 1.000000
vt 0.478254 0.324164
vt 1.000000 1.000000
vt 0.000000 1.000000
vt 0.250000 0.490000
vt 0.600000 0.500000
vt 0.891068 0.055836
vt 0.600000 1.000000
vt 0.391068 0.055836
vt 0.400000 0.500000
vt 0.608932 0.055836
vt 0.400000 1.000000
vt 0.108932 0.055836
vt 0.200000 0.500000
vt 0.521746 0.324164
vt 0.200000 1.000000
vt 0.021746 0.324164
vt 0.419491 0.302912
vt 0.250199 0.426223
vt 0.356482 0.109190
vt 0.143328 0.108840
vt 0.080252 0.302831
vt 0.750014 0.426780
vt 0.920090 0.303322
vt 0.856719 0.108214
vt 0.643274 0.108229
vt 0.579910 0.303292
vt 0.739180 0.642111
vt 0.715088 0.606272
vt 0.658767 0.644162
vt 0.683151 0.605583
vt 0.800000 0.583333
vt 0.600000 0.583333
vt 0.800000 0.666667
vt 0.600000 0.666667
vt 0.722084 0.614791
vt 0.674893 0.613380
vt 0.718085 0.633648
vt 0.678607 0.635122
vt 0.715088 0.606272
vt 0.683151 0.605583
vt 0.739180 0.642111
vt 0.658767 0.644162
vt 0.722084 0.614791
vt 0.674893 0.613380
vt 0.718085 0.633648
vt 0.678607 0.635122
vt 0.744254 0.606900
vt 0.653985 0.604955
vt 0.744254 0.606900
vt 0.653985 0.604955
vt 0.744254 0.606900
vt 0.653985 0.604955
vt 0.715088 0.606272
vt 0.683151 0.605583
vt 0.800000 0.916667
vt 0.800000 0.833333
vt 0.600000 0.916667
vt 0.600000 0.833333
vt 0.800000 0.916667
vt 0.800000 0.833333
vt 0.600000 0.916667
vt 0.600000 0.833333
vt 0.743689 0.891216
vt 0.742767 0.858722
vt 0.656704 0.891425
vt 0.657629 0.858512
vt 0.400000 0.833333
vt 0.400000 0.750000
vt 0.200000 0.833333
vt 0.200000 0.750000
vt 0.320662 0.807605
vt 0.308822 0.775743
vt 0.280545 0.807591
vt 0.292642 0.775750
vt 0.280545 0.807591
vt 0.320662 0.807605
vt 0.292642 0.775750
vt 0.308822 0.775743
vt 0.742767 0.858722
vt 0.657629 0.858512
vt 0.743689 0.891216
vt 0.656704 0.891425
s 1
usemtl Material.001
f 15/20/1 80/97/2 34/42/3 35/44/3
f 80/97/4 82/99/4 37/49/4 34/42/4
f 82/99/5 22/27/6 39/53/7 37/49/7
f 2/2/8 43/60/8 46/63/8 10/10/8
f 22/27/9 27/32/10 41/57/11 39/53/11
f 27/32/12 15/19/13 35/45/14 41/57/14
f 9/9/15 51/68/15 47/64/15 1/1/15
f 40/55/16 32/37/16 11/11/17 31/36/18
f 31/36/18 11/11/17 12/13/19 30/35/20
f 30/35/20 12/13/19 13/15/21 95/112/22
f 95/112/22 13/15/21 14/17/23 94/111/24
f 94/111/24 14/17/23 15/19/13 27/32/12
f 38/51/25 40/55/25 31/36/26 26/31/27
f 26/31/27 31/36/26 30/35/28 25/30/29
f 25/30/29 30/35/28 95/112/30 93/110/31
f 101/118/32 96/113/33 98/115/33 100/117/34
f 92/109/35 94/111/36 27/32/10 22/27/9
f 36/47/37 38/51/37 26/31/38 57/74/39
f 57/74/39 26/31/38 25/30/29 59/76/40
f 59/76/40 25/30/29 93/110/31 21/26/41
f 21/26/41 93/110/31 92/109/42 83/100/43
f 83/100/43 92/109/42 22/27/6 82/99/5
f 33/40/44 36/47/44 57/74/39 56/73/45
f 58/75/46 59/76/40 21/26/41 18/23/47
f 18/23/47 21/26/41 83/100/43 81/98/48
f 105/122/49 91/108/50 89/106/50 104/121/51
f 32/38/52 33/40/52 56/73/45 11/12/53
f 11/12/53 56/73/45 58/75/46 12/14/54
f 12/14/54 58/75/46 18/23/55 13/16/56
f 13/16/56 18/23/55 81/98/57 14/18/58
f 14/18/58 81/98/57 80/97/2 15/20/1
f 3/3/59 33/41/59 32/39/59 1/1/59
f 2/2/60 35/46/60 34/43/61 4/4/61
f 5/5/59 36/48/59 33/41/59 3/3/59
f 4/4/61 34/43/61 37/50/62 6/6/62
f 7/7/59 38/52/59 36/48/59 5/5/59
f 6/6/62 37/50/62 39/54/63 8/8/63
f 9/9/59 40/56/59 38/52/59 7/7/59
f 8/8/63 39/54/63 41/58/64 10/10/64
f 1/1/59 32/39/59 40/56/59 9/9/59
f 10/10/64 41/58/64 35/46/60 2/2/60
f 42/59/65 44/61/65 45/62/65 46/63/65 43/60/65
f 10/10/66 46/63/66 45/62/66 8/8/66
f 8/8/67 45/62/67 44/61/67 6/6/67
f 6/6/68 44/61/68 42/59/68 4/4/68
f 4/4/69 42/59/69 43/60/69 2/2/69
f 47/64/59 51/68/59 50/67/59 49/66/59 48/65/59
f 7/7/70 50/67/70 51/68/70 9/9/70
f 5/5/71 49/66/71 50/67/71 7/7/71
f 3/3/72 48/65/72 49/66/72 5/5/72
f 1/1/73 47/64/73 48/65/73 3/3/73
f 54/71/74 67/84/74 75/92/74 73/90/74
f 72/89/75 56/73/45 57/74/39 73/90/76
f 54/71/77 59/76/40 58/75/46 52/69/78
f 52/69/78 58/75/46 56/73/45 72/89/75
f 73/90/76 57/74/39 59/76/40 54/71/77
f 61/78/79 69/86/79 68/85/79 60/77/79
f 52/69/80 66/83/81 67/84/82 54/71/82
f 72/89/83 74/91/83 66/83/81 52/69/80
f 55/72/79 65/82/84 64/81/85 53/70/79
f 60/77/86 74/91/87 75/92/88 61/78/89
f 63/80/90 67/84/90 66/83/91 62/79/91
f 62/79/91 66/83/91 74/91/87 60/77/86
f 61/78/89 75/92/88 67/84/90 63/80/90
f 69/86/92 71/88/92 70/87/92 68/85/92
f 63/80/74 71/88/74 69/86/74 61/78/74
f 62/79/93 70/87/94 71/88/82 63/80/82
f 60/77/83 68/85/83 70/87/94 62/79/93
f 53/70/79 72/89/79 73/90/79 55/72/79
f 64/81/85 78/95/95 76/93/96 74/91/97
f 55/72/79 73/90/79 75/92/79 65/82/84
f 64/81/85 74/91/97 72/89/79 53/70/79
f 79/96/98 77/94/79 76/93/96 78/95/95
f 65/82/84 79/96/98 78/95/95 64/81/85
f 75/92/99 77/94/99 79/96/99 65/82/99
f 74/91/87 76/93/100 77/94/100 75/92/88
f 84/101/101 80/97/101 81/98/101 85/102/101
f 87/104/101 83/100/101 82/99/101 86/103/101
f 85/102/101 81/98/101 83/100/101 87/104/101
f 86/103/101 82/99/101 80/97/101 84/101/101
f 16/21/102 84/101/103 85/102/104 17/22/105
f 20/25/106 87/104/106 86/103/107 19/24/108
f 17/22/105 85/102/104 87/104/106 20/25/106
f 19/24/108 86/103/107 84/101/103 16/21/102
f 89/106/109 91/108/109 90/107/109 88/105/109
f 104/121/110 89/106/111 88/105/111 106/123/112
f 106/123/113 88/105/114 90/107/114 107/124/115
f 107/124/116 90/107/117 91/108/117 105/122/118
f 23/28/119 92/109/35 93/110/31 24/29/120
f 29/34/121 95/112/30 94/111/36 28/33/122
f 24/29/120 93/110/31 95/112/30 29/34/121
f 28/33/122 94/111/36 92/109/35 23/28/119
f 97/114/123 99/116/123 98/115/123 96/113/123
f 100/117/124 98/115/125 99/116/126 102/119/127
f 102/119/127 99/116/126 97/114/128 103/120/129
f 103/120/130 97/114/131 96/113/131 101/118/132
f 24/29/133 103/120/130 101/118/132 23/28/133
f 29/34/134 102/119/127 103/120/129 24/29/134
f 28/33/135 100/117/124 102/119/127 29/34/135
f 23/28/136 101/118/32 100/117/34 28/33/136
f 19/24/137 107/124/116 105/122/118 20/25/137
f 16/21/138 106/123/113 107/124/115 19/24/138
f 17/22/139 104/121/110 106/123/112 16/21/139
f 20/25/140 105/122/49 104/121/51 17/22/140
